<?xml version="1.0" encoding="UTF-8" standalone="no"?>
<!-- Created with Inkscape (http://www.inkscape.org/) -->

<svg
   version="1.1"
   id="svg1"
   width="1365.3333"
   height="1365.3333"
   viewBox="0 0 1365.3333 1365.3333"
   sodipodi:docname="favicon-carosserie-lino.svg"
   inkscape:version="1.4.3 (0d15f75, 2025-12-25)"
   xmlns:inkscape="http://www.inkscape.org/namespaces/inkscape"
   xmlns:sodipodi="http://sodipodi.sourceforge.net/DTD/sodipodi-0.dtd"
   xmlns="http://www.w3.org/2000/svg"
   xmlns:svg="http://www.w3.org/2000/svg">
  <defs
     id="defs1" />
  <sodipodi:namedview
     id="namedview1"
     pagecolor="#ffffff"
     bordercolor="#000000"
     borderopacity="0.25"
     inkscape:showpageshadow="2"
     inkscape:pageopacity="0.0"
     inkscape:pagecheckerboard="0"
     inkscape:deskcolor="#d1d1d1"
     inkscape:zoom="0.5"
     inkscape:cx="859"
     inkscape:cy="759"
     inkscape:window-width="1920"
     inkscape:window-height="1009"
     inkscape:window-x="-8"
     inkscape:window-y="-8"
     inkscape:window-maximized="1"
     inkscape:current-layer="g1" />
  <g
     inkscape:groupmode="layer"
     inkscape:label="Logo"
     id="g1"
     style="display:inline">
    <path
       style="display:inline;fill:#162047;fill-opacity:1;stroke-width:6.29495"
       d="m 205.44595,1332.373 c 46.8045,-9.6848 550.05752,-33.5297 822.54105,-38.9734 l 226.6185,-4.5272 -23.2684,24.0364 -23.2685,24.0363 -518.09791,1.1876 c -291.47045,0.6679 -503.41228,-1.8513 -484.52474,-5.7597 z m 36.83783,-73.5514 -26.37657,-23.5676 14.31449,-49.8737 c 27.94499,-97.3641 70.75695,-151.9226 145.42737,-185.3286 50.32566,-22.51472 52.21872,-22.92907 52.21872,-11.42752 0,4.61631 -5.82732,8.39322 -12.94951,8.39322 -7.12226,0 -31.74,17.5765 -54.70621,39.0585 -34.79165,32.5436 -44.74934,48.9113 -59.69867,98.1287 -17.91786,58.9908 -17.03775,80.7657 5.39552,133.496 10.35546,24.341 -33.25727,18.2545 -63.62514,-8.879 z M 130.05916,1155.1921 c -3.18991,-52.3738 -4.52929,-208.53428 -2.97631,-347.02336 2.68492,-239.43433 3.71778,-253.46867 21.03523,-285.81577 10.01643,-18.70955 28.90127,-39.00649 41.96638,-45.10429 23.5346,-10.98416 23.20262,-11.21875 -35.82224,-25.31701 C 76.013164,433.24175 38.358667,411.1142 34.924951,381.80357 31.111207,349.24934 61.684189,339.70992 153.83627,344.70091 c 80.84669,4.37857 109.13318,17.29936 129.70543,59.24707 6.02225,12.2797 15.6067,22.32668 21.29873,22.32668 17.29642,0 83.25327,-74.61445 152.09772,-172.06222 84.43829,-119.52052 116.16086,-151.88158 167.83893,-171.216804 95.3547,-35.676801 270.29951,-56.998259 521.90502,-63.607407 178.1415,-4.679426 194.2177,5.836446 23.554,15.407278 -114.6199,6.427898 -285.23283,29.88212 -414.18786,56.938529 -107.44872,22.544084 -117.05119,30.169724 -219.12441,174.015004 -41.35799,58.28311 -83.12984,116.35598 -92.82629,129.05086 -9.69641,12.69477 -13.39181,23.08145 -8.21193,23.08145 5.17994,0 102.75203,3.87526 216.8269,8.61157 177.05924,7.35145 376.30559,24.95843 564.12329,49.85027 25.3897,3.36498 -117.3061,4.19869 -317.10154,1.85275 -412.08814,-4.83869 -394.51467,-8.46226 -299.00942,61.65515 29.832,21.90184 52.44439,41.61729 50.24969,43.81203 -2.19471,2.19466 -48.57039,-16.84067 -103.05701,-42.30083 -125.20413,-58.50451 -169.18896,-73.12126 -220.03742,-73.12126 -66.96761,0 -130.7801,35.14866 -157.45196,86.72637 -17.73533,34.29641 -24.41275,161.49969 -11.96936,228.01202 5.18085,27.69257 27.89378,89.28856 50.4733,136.88003 37.47282,78.98285 40.32164,89.23235 32.66253,117.51535 -8.47782,31.3061 -85.96182,192.8296 -98.79401,205.9467 -3.81784,3.9026 -9.55146,-35.7558 -12.74144,-88.1294 z m 204.252,56.5051 c -12.64527,-27.7533 -2.27134,-89.495 20.78569,-123.7091 10.29107,-15.2711 33.70719,-36.3792 52.03587,-46.9074 l 33.32497,-19.142 401.04286,1.1742 c 454.36465,1.3304 423.80705,-3.8651 412.70505,70.1685 l -5.5293,36.8721 -128.8489,2.6765 -128.84893,2.6765 -31.85542,30.0824 c -76.0813,71.8471 -47.7685,66.4404 -347.91505,66.4404 H 343.57505 Z M 474.03078,874.01454 c -9.23262,-1.95241 -25.37997,-5.38705 -35.88302,-7.63264 -33.91574,-7.25129 -87.42011,-63.99317 -112.66932,-119.48706 -31.32526,-68.84796 -67.66493,-204.28293 -57.53175,-214.41611 15.13466,-15.13466 62.06389,23.89619 96.37856,80.15769 57.05666,93.54846 96.84759,127.31074 186.49481,158.23942 86.97684,30.00733 254.74514,56.5198 254.74514,40.25746 0,-3.93861 -10.90842,-7.16119 -24.24088,-7.16119 -31.36538,0 -160.91737,-37.39729 -215.35052,-62.16441 -50.28494,-22.8798 -100.43372,-65.03466 -118.17051,-99.33376 -16.17495,-31.27896 -8.69885,-39.49797 15.76898,-17.33593 29.94236,27.12062 129.44285,81.62943 216.2296,118.4558 92.25434,39.14639 168.63792,55.9695 327.20203,72.06448 l 113.3092,11.5014 -117.5059,0.94848 c -136.31582,1.10022 -259.19231,12.58913 -377.69742,35.31472 -81.27252,15.58547 -115.96304,18.01753 -151.079,10.59165 z"
       id="path1"
       sodipodi:nodetypes="sscccssscssssssssssssssssssssssssssssssssssssssssscsscccsscsssssssssssssscsss"
       inkscape:label="Voiture" />
  </g>
</svg>
