<?xml version="1.0" encoding="UTF-8" standalone="no"?>
<!-- Created with Inkscape (http://www.inkscape.org/) -->

<svg
   version="1.1"
   id="svg1"
   width="1365.3333"
   height="1365.3333"
   viewBox="0 0 1365.3333 1365.3333"
   sodipodi:docname="favicon.svg"
   inkscape:version="1.4.3 (0d15f75, 2025-12-25)"
   xmlns:inkscape="http://www.inkscape.org/namespaces/inkscape"
   xmlns:sodipodi="http://sodipodi.sourceforge.net/DTD/sodipodi-0.dtd"
   xmlns="http://www.w3.org/2000/svg"
   xmlns:svg="http://www.w3.org/2000/svg">
  <defs
     id="defs1" />
  <sodipodi:namedview
     id="namedview1"
     pagecolor="#ffffff"
     bordercolor="#000000"
     borderopacity="0.25"
     inkscape:showpageshadow="2"
     inkscape:pageopacity="0.0"
     inkscape:pagecheckerboard="0"
     inkscape:deskcolor="#d1d1d1"
     inkscape:zoom="0.5"
     inkscape:cx="859"
     inkscape:cy="759"
     inkscape:window-width="1920"
     inkscape:window-height="1009"
     inkscape:window-x="-8"
     inkscape:window-y="-8"
     inkscape:window-maximized="1"
     inkscape:current-layer="g1" />
  <g
     inkscape:groupmode="layer"
     inkscape:label="Logo"
     id="g1"
     style="display:inline">
    <path
       style="display:inline;fill:#162047;fill-opacity:1;stroke-width:2.86134"
       d="m 98.26391,935.57313 c 21.27478,-4.4022 250.02615,-15.2408 373.88232,-17.7152 l 103.0084,-2.0578 -10.57656,10.9256 -10.57659,10.9256 -235.49905,0.5398 c -132.48657,0.3036 -228.82376,-0.8415 -220.23852,-2.618 z m 16.74447,-33.4325 -11.98935,-10.7125 6.50659,-22.6699 c 12.70227,-44.2564 32.16225,-69.0557 66.10335,-84.2403 22.8753,-10.23396 23.73578,-10.42226 23.73578,-5.1943 0,2.0983 -2.64878,3.8151 -5.88614,3.8151 -3.23739,0 -14.42727,7.9893 -24.86646,17.7539 -15.81439,14.7925 -20.34061,22.2324 -27.13576,44.6039 -8.14448,26.814 -7.74443,36.7117 2.45251,60.68 4.70703,11.0641 -15.11694,8.2975 -28.92052,-4.0359 z m -51.01119,-47.1043 c -1.44996,-23.8063 -2.05877,-94.78831 -1.35287,-157.7379 1.22042,-108.83379 1.6899,-115.21303 9.56147,-129.91626 4.55292,-8.50434 13.13694,-17.73022 19.07563,-20.50195 10.69754,-4.9928 10.54664,-5.09943 -16.28284,-11.50773 -35.567753,-8.49542 -52.683433,-18.5534 -54.244213,-31.87641 -1.73352,-14.79738 12.16329,-19.13348 54.050603,-16.86485 36.74849,1.99026 49.60599,7.86335 58.95701,26.93049 2.73739,5.58168 7.09396,10.14849 9.68124,10.14849 7.86201,0 37.8424,-33.91566 69.13533,-78.2101 38.38104,-54.32751 52.80039,-69.03708 76.29042,-77.82582 43.34305,-16.21673 122.86342,-25.9083 237.22956,-28.91246 80.97342,-2.12701 88.28076,2.65293 10.70635,7.00331 -52.09996,2.92177 -129.65127,13.58278 -188.2672,25.88115 -48.84032,10.24731 -53.20508,13.71351 -99.602,79.09773 -18.79909,26.49232 -37.78629,52.88908 -42.19377,58.65948 -4.40746,5.77035 -6.08719,10.49157 -3.7327,10.49157 2.35452,0 46.70547,1.76148 98.55769,3.91435 80.48147,3.34157 171.048,11.34474 256.41966,22.65921 11.54078,1.52954 -53.32093,1.9085 -144.13705,0.84216 -187.31279,-2.1994 -179.32485,-3.84648 -135.91337,28.02507 13.56,9.95538 23.83836,18.91695 22.84077,19.91456 -0.9976,0.99757 -22.07745,-7.65485 -46.8441,-19.22765 -56.91097,-26.59296 -76.90407,-33.23694 -100.01701,-33.23694 -30.43982,0 -59.4455,15.97667 -71.56907,39.42108 -8.06152,15.58928 -11.09671,73.40895 -5.44062,103.64183 2.35493,12.58753 12.67899,40.58571 22.94241,62.2182 17.0331,35.90129 18.32802,40.56019 14.8466,53.41609 -3.85355,14.23 -39.07355,87.6498 -44.90637,93.6121 -1.73538,1.7739 -4.34157,-16.2526 -5.79156,-40.0588 z m 92.84182,25.6841 c -5.74785,-12.6151 -1.03243,-40.6795 9.44804,-56.2314 4.67776,-6.9414 15.32145,-16.536 23.65267,-21.3215 l 15.14771,-8.7009 182.29221,0.5337 c 206.52939,0.6047 192.63958,-1.7569 187.59321,31.8948 l -2.51333,16.76 -58.56768,1.2166 -58.56769,1.2166 -14.47973,13.6738 c -34.58241,32.6578 -21.71296,30.2002 -158.14321,30.2002 H 161.04987 Z m 63.50892,-153.49209 c -4.19665,-0.88746 -11.53635,-2.44866 -16.31047,-3.46938 -15.41624,-3.29604 -39.73641,-29.08781 -51.21332,-54.3123 -14.23876,-31.29453 -30.75679,-92.85588 -26.1508,-97.46187 6.87939,-6.87939 28.21086,10.8619 43.80844,36.43531 25.93484,42.52203 44.02163,57.86852 84.77037,71.92701 39.53492,13.6397 115.79324,25.69082 115.79324,18.29885 0,-1.79028 -4.95837,-3.25509 -11.01858,-3.25509 -14.25699,0 -73.14426,-16.99877 -97.8866,-28.25655 -22.85679,-10.39991 -45.65169,-29.56121 -53.71387,-45.15171 -7.35225,-14.21771 -3.95402,-17.95362 7.16772,-7.87997 13.61016,12.32756 58.83766,37.10429 98.28618,53.84355 41.93379,17.79381 76.6536,25.44068 148.72818,32.75658 l 51.50419,5.22791 -53.41177,0.43113 c -61.96173,0.5001 -117.81468,5.72233 -171.68064,16.05214 -36.94205,7.08431 -52.71047,8.18979 -68.67227,4.81439 z"
       id="path1"
       sodipodi:nodetypes="sscccssscssssssssssssssssssssssssssssssssssssssssscsscccsscsssssssssssssscsss"
       inkscape:label="Voiture" />
    <g
       id="g3"
       transform="translate(0,14)">
      <path
         id="rect6-4"
         style="display:inline;fill:#162047;fill-opacity:1;stroke:none;stroke-width:46.0268"
         inkscape:label="O"
         d="m 1048.9588,702.7877 c -30.9903,0 -55.934,24.61181 -55.934,55.1892 v 115.48502 c 0,30.5774 24.9437,55.18909 55.934,55.18909 h 226.1136 c 30.99,0 55.934,-24.61169 55.934,-55.18909 V 757.9769 c 0,-30.57739 -24.944,-55.1892 -55.934,-55.1892 z m 10.4145,47.73652 h 204.2431 c 9.2308,0 16.6634,7.33339 16.6634,16.44153 v 101.46196 c 0,9.10814 -7.4326,16.44153 -16.6634,16.44153 h -204.2431 c -9.2311,0 -16.6634,-7.33339 -16.6634,-16.44153 V 766.96575 c 0,-9.10814 7.4323,-16.44153 16.6634,-16.44153 z" />
      <path
         id="rect10"
         style="display:inline;fill:#162047;fill-opacity:1;stroke:none;stroke-width:60.9362"
         d="m 673.36364,702.33635 v 0.028 h -49.8226 V 930.00003 H 673.4456 V 766.53739 l 203.99668,159.11242 v -0.028 h 55.15793 V 702.36372 H 877.44228 V 856.45557 L 673.4456,702.40477 v -0.0421 h -0.041 z"
         inkscape:label="N" />
      <rect
         style="display:inline;fill:#162047;fill-opacity:1;stroke:none;stroke-width:63.0963"
         id="rect9"
         width="45.996006"
         height="223.25806"
         x="1121.3602"
         y="311.81699"
         inkscape:label="I" />
      <path
         id="rect11"
         style="display:inline;fill:#162047;fill-opacity:1;stroke:none;stroke-width:60.9362"
         d="m 644.04422,314.85179 v 156.28066 h 0.0137 c -0.19397,64.23206 57.38367,64.35086 57.77079,64.35086 H 929.46434 V 492.58275 H 702.26608 c -0.15413,-0.0351 -0.31238,-0.0489 -0.47908,-0.056 -15.13372,-0.30607 -14.03217,-20.3846 -13.96731,-21.39559 10e-4,-0.0205 -3.6e-4,-0.0351 0,-0.0421 V 314.85172 Z"
         inkscape:label="L" />
    </g>
  </g>
</svg>
