<?xml version="1.0" encoding="UTF-8" standalone="no"?>
<svg
   version="1.1"
   viewBox="0 0 1365.3331 400.00001"
   id="svg15"
   sodipodi:docname="logo-carrosserie-lino-dark.svg"
   inkscape:version="1.4.3 (0d15f75, 2025-12-25)"
   width="1365.333"
   height="400"
   xmlns:inkscape="http://www.inkscape.org/namespaces/inkscape"
   xmlns:sodipodi="http://sodipodi.sourceforge.net/DTD/sodipodi-0.dtd"
   xmlns="http://www.w3.org/2000/svg"
   xmlns:svg="http://www.w3.org/2000/svg">
  <defs
     id="defs15" />
  <sodipodi:namedview
     id="namedview15"
     pagecolor="#ffffff"
     bordercolor="#000000"
     borderopacity="0.25"
     inkscape:showpageshadow="2"
     inkscape:pageopacity="0.0"
     inkscape:pagecheckerboard="0"
     inkscape:deskcolor="#d1d1d1"
     inkscape:zoom="1.182129"
     inkscape:cx="414.50638"
     inkscape:cy="123.08302"
     inkscape:window-width="1920"
     inkscape:window-height="1009"
     inkscape:window-x="-8"
     inkscape:window-y="-8"
     inkscape:window-maximized="1"
     inkscape:current-layer="svg15" />
  <path
     style="fill:#ffffff;stroke-width:1.36514"
     d="m 60.269291,351.80785 c 10.15011,-2.10028 119.286429,-7.27134 178.377679,-8.45185 l 49.14488,-0.98179 -5.04603,5.21258 -5.04605,5.21257 -112.3556,0.25752 c -63.20879,0.14486 -109.170859,-0.40149 -105.074879,-1.24903 z m 7.988719,-15.95053 -5.720068,-5.11088 3.104263,-10.81571 c 6.060205,-21.11454 15.344478,-32.94617 31.537634,-40.19067 10.913711,-4.8826 11.324231,-4.97244 11.324231,-2.4782 0,1.00111 -1.26372,1.82019 -2.80824,1.82019 -1.54454,0 -6.883194,3.81163 -11.863686,8.47029 -7.544981,7.05745 -9.70442,10.60698 -12.946358,21.28034 -3.885694,12.79282 -3.694835,17.51499 1.170085,28.95019 2.245703,5.27861 -7.212229,3.9587 -13.797861,-1.92555 z M 43.920784,313.38406 c -0.691769,-11.35786 -0.982229,-45.22309 -0.64545,-75.25607 0.582257,-51.92415 0.806249,-54.96766 4.561737,-61.9825 2.172176,-4.05739 6.267582,-8.45903 9.100907,-9.78141 5.103751,-2.38203 5.031753,-2.43291 -7.768481,-5.49028 -16.969221,-4.05313 -25.135038,-8.85175 -25.879679,-15.2081 -0.827053,-7.05978 5.803055,-9.1285 25.787314,-8.04615 17.532545,0.94954 23.666809,3.75157 28.12814,12.84842 1.305997,2.663 3.384498,4.84181 4.618881,4.84181 3.750928,0 18.054449,-16.18102 32.984167,-37.31372 18.31144,-25.919427 25.19085,-32.937302 36.39785,-37.130371 20.67878,-7.736932 58.61762,-12.360742 113.18123,-13.794011 38.63207,-1.014787 42.11837,1.265699 5.10795,3.341251 -24.85667,1.393967 -61.85608,6.480284 -89.82149,12.347787 -23.30151,4.888946 -25.38392,6.542657 -47.5197,37.737194 -8.96897,12.63938 -18.02768,25.23316 -20.13047,27.98619 -2.10278,2.75301 -2.90417,5.00549 -1.78086,5.00549 1.12333,0 22.28299,0.84039 47.02147,1.86752 38.39737,1.59424 81.60628,5.41253 122.33674,10.81061 5.50605,0.72974 -25.43919,0.91054 -68.76719,0.40179 -89.36613,-1.04932 -85.55513,-1.83514 -64.84369,13.37064 6.46942,4.74968 11.37318,9.0252 10.89724,9.50115 -0.47596,0.47595 -10.53306,-3.65209 -22.34913,-9.17342 -27.15198,-12.68739 -36.690607,-15.85721 -47.717694,-15.85721 -14.522707,0 -28.361195,7.6224 -34.145301,18.80764 -3.846119,7.43757 -5.294201,35.02309 -2.595696,49.44708 1.12352,6.00546 6.049093,19.36327 10.945724,29.68403 8.12642,17.12835 8.744226,19.35111 7.083252,25.4846 -1.83851,6.78908 -18.641827,41.81736 -21.424642,44.66194 -0.827941,0.84633 -2.071347,-7.75403 -2.763129,-19.1119 z m 44.294442,12.25377 c -2.742271,-6.0186 -0.492568,-19.408 4.507623,-26.82777 2.231737,-3.31167 7.309791,-7.88924 11.284591,-10.17237 l 7.22691,-4.15116 86.97084,0.25462 c 98.53431,0.28848 91.90754,-0.8382 89.49993,15.2169 l -1.19909,7.9961 -27.9424,0.58044 -27.9424,0.58044 -6.90821,6.52373 c -16.49912,15.58088 -10.35917,14.40835 -75.44947,14.40835 H 90.224214 Z m 30.299834,-73.23042 c -2.0022,-0.42339 -5.50394,-1.16824 -7.78165,-1.65522 -7.35502,-1.57253 -18.958075,-13.87767 -24.43366,-25.91217 -6.793256,-14.93049 -14.673937,-44.30115 -12.476438,-46.49865 3.282127,-3.28212 13.459281,5.18217 20.900825,17.38313 12.373393,20.28709 21.002533,27.60883 40.443583,34.31608 18.86194,6.50744 55.24447,12.25698 55.24447,8.73031 0,-0.85414 -2.36562,-1.553 -5.25692,-1.553 -6.80195,0 -34.89682,-8.11003 -46.70128,-13.48108 -10.90488,-4.96175 -21.78023,-14.10353 -25.62667,-21.54169 -3.50773,-6.7832 -1.88644,-8.56559 3.41969,-3.7595 6.49335,5.88143 28.0712,17.7023 46.89193,25.68854 20.00643,8.48935 36.57111,12.13763 70.95759,15.62803 l 24.57244,2.49421 -25.48254,0.20568 c -29.56168,0.2386 -56.20889,2.73011 -81.90811,7.65841 -17.6249,3.3799 -25.14794,3.90732 -32.76326,2.29692 z"
     id="path1" />
  <path
     style="fill:#ffffff;stroke-width:1.36514"
     d="m 872.98821,251.82202 c -6.04008,0 -10.90172,4.79691 -10.90172,10.75653 v 22.50839 c 0,5.95964 4.86164,10.75653 10.90172,10.75653 h 44.07024 c 6.04007,0 10.90171,-4.79689 10.90171,-10.75653 v -22.50839 c 0,-5.95962 -4.86164,-10.75653 -10.90171,-10.75653 z m 2.02984,9.30398 h 39.80757 c 1.79915,0 3.24775,1.4293 3.24775,3.20451 v 19.77526 c 0,1.7752 -1.4486,3.2045 -3.24775,3.2045 h -39.80757 c -1.79917,0 -3.24776,-1.4293 -3.24776,-3.2045 v -19.77526 c 0,-1.77521 1.44859,-3.20451 3.24776,-3.20451 z"
     id="path2" />
  <path
     style="fill:#ffffff;stroke-width:1.36514"
     d="m 771.4889,251.60342 v 0.005 h -9.71059 v 44.3669 h 9.72659 V 264.1164 l 39.75957,31.01151 v -0.005 h 10.75044 V 251.60922 H 811.26447 V 281.6422 L 771.5049,251.61676 v -0.008 h -0.008 z"
     id="path3" />
  <rect
     style="fill:#ffffff;stroke-width:1.36514"
     width="8.9647655"
     height="43.513695"
     x="712.54205"
     y="251.7794"
     id="rect3" />
  <path
     style="fill:#ffffff;stroke-width:1.36514"
     d="m 614.77028,252.206 v 30.45959 h 0.003 c -0.0378,12.51903 11.18426,12.54218 11.25971,12.54218 h 44.3669 v -8.36145 h -44.28165 c -0.03,-0.007 -0.0609,-0.01 -0.0934,-0.0109 -2.9496,-0.0597 -2.73491,-3.97303 -2.72227,-4.17007 2.6e-4,-0.004 -7e-5,-0.007 0,-0.008 V 252.206 Z"
     id="path4" />
  <path
     style="fill:#49a5ce;stroke-width:1.36514"
     d="m 1338.731,119.27593 h -65.6972 c 0,0 -11.9449,0.0853 -11.9449,10.06788 v 9.98255 25.93758 c 0,0 -0.9385,12.03025 13.566,11.77429 14.5046,-0.25596 64.2467,0.0853 64.2467,0.0853 l -0.1706,-12.71282 -61.559,0.2133 c -3.1278,0.0266 -3.5174,-0.48345 -3.5835,-5.84449 -0.074,-6.03933 0.9217,-6.69016 3.6409,-6.69769 l 56.2117,-0.29863 7e-4,-9.89117 -56.3834,-0.20428 c -2.9032,0.005 -3.559,-0.81493 -3.5857,-5.23634 -0.023,-3.82305 0.6595,-5.31873 3.5337,-5.3266 15.947,-0.0437 61.5546,-0.16028 61.5546,-0.16028 z"
     id="path5" />
  <rect
     style="fill:#49a5ce;stroke-width:1.36514"
     width="10.376983"
     height="57.797131"
     x="1228.106"
     y="119.25127"
     id="rect5" />
  <path
     style="fill:#49a5ce;stroke-width:1.36514"
     d="m 1184.9528,119.24544 -57.8476,0.17064 0.014,57.63431 12.9208,-0.005 0.037,-21.45288 36.8746,0.1813 15.1818,21.27158 15.3904,-0.004 -14.8731,-22.63224 c 0,0 16.6776,-0.69323 16.6776,-10.59047 v -9.95855 l -0.1092,-4.67665 c 0,0 0.03,-9.93723 -12.6596,-9.93723 z m 2.9863,12.20089 h 2.4317 c 6.9085,0 6.7457,4.68732 6.7457,4.68732 v 4.10074 c 0,4.48243 -6.5272,4.60734 -6.5272,4.60734 h -50.8511 l -0.1707,-13.31007 z"
     id="path6" />
  <path
     style="fill:#49a5ce;stroke-width:1.36514"
     d="m 1107.0723,119.19061 h -65.6972 c 0,0 -11.9449,0.0853 -11.9449,10.06788 v 9.98255 25.93757 c 0,0 -0.9385,12.03026 13.566,11.7743 14.5046,-0.25596 64.2467,0.0853 64.2467,0.0853 l -0.1706,-12.71282 -61.5591,0.2133 c -3.1278,0.0266 -3.5174,-0.48345 -3.5835,-5.84449 -0.074,-6.03933 0.9218,-6.69016 3.641,-6.69769 l 56.2117,-0.29863 7e-4,-9.89117 -56.3835,-0.20428 c -2.9032,0.005 -3.559,-0.81493 -3.5856,-5.23634 -0.023,-3.82305 0.6595,-5.31874 3.5336,-5.3266 15.947,-0.0437 61.5547,-0.16028 61.5547,-0.16028 z"
     id="path7" />
  <path
     style="fill:#49a5ce;stroke-width:1.36514"
     d="m 1007.9709,119.18854 -66.36416,0.005 c 0,0 -13.03151,-0.12928 -13.15217,10.73025 l -0.12068,10.85958 c 0,0 -0.72397,14.11746 17.496,13.99679 l 18.21999,-0.12067 27.0283,-0.48266 c 0,0 6.87773,-0.24132 6.9984,5.4298 0.12067,5.67111 -6.39509,5.67111 -6.39509,5.67111 l -63.3476,0.008 0.008,11.70422 67.21631,0.008 c 0,0 14.3437,-0.85972 14.223,-12.6846 -0.1206,-11.82487 -0.1206,-9.53231 -0.1206,-9.53231 0,0 0.6033,-11.82487 -11.22161,-12.0662 l -11.82552,-0.24277 -38.24984,-0.12054 c 0,0 -8.08436,0.48265 -8.08436,-5.79178 0,-6.27443 7.48105,-5.67112 7.48105,-5.67112 l 60.21038,-0.12068 z"
     id="path8" />
  <path
     style="fill:#49a5ce;stroke-width:1.36514"
     d="m 905.21424,119.25462 -66.36413,0.005 c 0,0 -13.03151,-0.12927 -13.15217,10.73026 l -0.12068,10.85958 c 0,0 -0.72397,14.11745 17.496,13.99679 l 18.21999,-0.12068 27.0283,-0.48266 c 0,0 6.87773,-0.24131 6.9984,5.4298 0.12067,5.67112 -6.39509,5.67112 -6.39509,5.67112 l -63.3476,0.008 0.008,11.70422 67.21631,0.008 c 0,0 14.34371,-0.85972 14.22305,-12.68461 -0.12068,-11.82487 -0.12068,-9.5323 -0.12068,-9.5323 0,0 0.60331,-11.82487 -11.22158,-12.0662 l -11.82552,-0.24278 -38.24984,-0.12061 c 0,0 -8.08436,0.48266 -8.08436,-5.79178 0,-6.27442 7.48105,-5.67111 7.48105,-5.67111 l 60.21036,-0.12068 z"
     id="path9" />
  <path
     style="fill:#49a5ce;stroke-width:1.36514"
     d="m 735.93939,118.93465 c -7.85452,0 -14.17661,6.32209 -14.17661,14.17662 v 29.66502 c 0,7.85453 6.32209,14.17662 14.17661,14.17662 h 57.30902 c 7.85453,0 14.17662,-6.32209 14.17662,-14.17662 v -29.66502 c 0,-7.85453 -6.32209,-14.17662 -14.17662,-14.17662 z m 2.63962,12.26222 h 51.76583 c 2.33963,0 4.22338,1.88375 4.22338,4.22339 v 26.06289 c 0,2.33964 -1.88375,4.22339 -4.22338,4.22339 h -51.76583 c -2.33964,0 -4.22339,-1.88375 -4.22339,-4.22339 v -26.06289 c 0,-2.33964 1.88375,-4.22339 4.22339,-4.22339 z"
     id="path10" />
  <path
     style="fill:#49a5ce;stroke-width:1.36514"
     d="m 678.04737,119.26423 -57.84762,0.17065 0.0109,57.63431 12.92081,-0.005 0.0373,-21.45289 36.87466,0.18131 15.1818,21.27158 15.39047,-0.004 -14.87321,-22.63224 c 0,0 16.67759,-0.69322 16.67759,-10.59046 v -9.95855 l -0.10935,-4.67666 c 0,0 0.03,-9.93723 -12.6595,-9.93723 z m 2.98623,12.2009 h 2.43165 c 6.90861,0 6.74569,4.68732 6.74569,4.68732 l -0.005,4.10074 c -0.005,4.48243 -6.52705,4.60733 -6.52705,4.60733 h -50.85117 l -0.17065,-13.31007 z"
     id="path11" />
  <path
     style="fill:#49a5ce;stroke-width:1.36514"
     d="m 575.75879,119.25214 -57.84762,0.17064 0.0109,57.63432 12.92081,-0.005 0.0373,-21.45289 36.87465,0.1813 15.1818,21.27159 15.39047,-0.004 -14.87321,-22.63224 c 0,0 16.67759,-0.69323 16.67759,-10.59046 v -9.95856 l -0.10935,-4.67665 c 0,0 0.03,-9.93723 -12.6595,-9.93723 z m 2.98623,12.2009 h 2.43165 c 6.90861,0 6.7457,4.68731 6.7457,4.68731 l -0.005,4.10075 c -0.005,4.48242 -6.52706,4.60733 -6.52706,4.60733 h -50.85117 l -0.17065,-13.31007 z"
     id="path12" />
  <path
     style="fill:#49a5ce;stroke-width:1.36514"
     d="m 484.39984,119.19061 -51.08594,0.0853 -8.4681,-0.0426 c -9.67904,-0.0489 -10.32383,9.8545 -10.32383,9.8545 l 0.17064,47.43846 12.28622,0.17065 V 155.3667 l 56.48248,0.17065 0.0853,21.1596 h 12.37154 v -39.58893 -7.84953 c 0,-9.04403 -11.51833,-10.06788 -11.51833,-10.06788 z m -3.62614,11.68364 c 0,0 3.04016,0.0244 3.03423,2.89559 l -0.005,2.48497 -0.0109,8.52676 -57.41035,0.005 -0.0293,-11.04907 c 0,0 0.01,-2.85825 2.49563,-2.85825 h 0.43461 z"
     id="path13" />
  <path
     style="fill:#49a5ce;stroke-width:1.36514"
     d="m 392.50916,119.23327 -66.11858,0.0378 c 0,0 -12.39976,-0.56236 -12.38706,12.76709 l 0.0109,10.8711 v 22.3541 c 0,0 8e-5,11.58849 13.97755,11.7941 l 10.25894,0.007 54.2588,-0.022 v -12.80288 l -58.35954,0.34129 c 0,0 -7.71445,0.77654 -7.67889,-5.88715 0.0396,-7.41594 -0.0285,-14.96074 0.0853,-22.43942 0,0 -0.25596,-5.2899 4.35137,-5.46054 l 4.60733,-0.17064 56.99441,-0.0213 z"
     id="path14" />
</svg>
