<?xml version="1.0" encoding="UTF-8" standalone="no"?>
<svg version="1.1" xmlns="http://www.w3.org/2000/svg" viewBox="0 0 1365.3333 1365.3333">
  <g style="display:inline">
    <path style="fill:#162047" d="m 249.99999,769.27364 c 7.43524,-1.53851 87.38065,-5.32646 130.66665,-6.19121 l 36,-0.71919 -3.69636,3.81836 -3.69637,3.81835 -82.30363,0.18864 c -46.30221,0.10612 -79.97071,-0.2941 -76.97029,-0.91495 z m 5.85196,-11.68421 -4.19011,-3.74386 2.27396,-7.92281 c 4.43927,-15.46699 11.24026,-24.13399 23.1022,-29.44079 7.9946,-3.57664 8.29532,-3.64245 8.29532,-1.81535 0,0.73334 -0.92571,1.33334 -2.05712,1.33334 -1.13142,0 -5.04213,2.79212 -8.69048,6.20472 -5.52691,5.16978 -7.10876,7.76991 -9.48357,15.58845 -2.84638,9.3711 -2.70657,12.83022 0.85712,21.20682 1.64504,3.86673 -5.28316,2.89986 -10.10732,-1.41052 z m -17.8277,-16.46229 c -0.50674,-8.31995 -0.71951,-33.12718 -0.47281,-55.12718 0.42652,-38.03589 0.5906,-40.26535 3.3416,-45.40392 1.59118,-2.97215 4.59118,-6.19647 6.66667,-7.16515 3.73864,-1.74491 3.6859,-1.78218 -5.69063,-4.02179 -12.43043,-2.96903 -18.41212,-6.48415 -18.95759,-11.14036 -0.60584,-5.17148 4.2509,-6.68688 18.88993,-5.89403 12.84308,0.69557 17.3366,2.74813 20.60465,9.41183 0.95668,1.95072 2.47924,3.54676 3.38346,3.54676 2.74766,0 13.22539,-11.85305 24.16183,-27.33334 13.41364,-18.98671 18.453,-24.1275 26.66244,-27.19904 15.14779,-5.66752 42.93905,-9.05459 82.90842,-10.1045 28.29908,-0.74336 30.85289,0.92716 3.74172,2.44756 -18.20821,1.02112 -45.31131,4.74699 -65.79676,9.0451 -17.06901,3.58129 -18.59443,4.79268 -34.80951,27.64355 -6.57002,9.2587 -13.20578,18.484 -14.74613,20.50067 -1.54035,2.01666 -2.12739,3.66666 -1.30453,3.66666 0.82287,0 16.32291,0.61561 34.44454,1.36801 28.12715,1.16783 59.77889,3.96483 89.61509,7.91908 4.03334,0.53455 -18.63492,0.66699 -50.37389,0.29432 -65.4632,-0.76866 -62.67153,-1.34429 -47.49982,9.79437 4.73903,3.47927 8.33117,6.61121 7.98253,6.95986 -0.34865,0.34864 -7.71576,-2.67526 -16.37136,-6.71979 -19.88959,-9.29387 -26.8769,-11.61585 -34.95455,-11.61585 -10.63829,0 -20.77537,5.58362 -25.01239,13.77712 -2.81739,5.44823 -3.87815,25.6554 -1.90142,36.22137 0.82301,4.39917 4.43113,14.18414 8.01805,21.74439 5.95283,12.54699 6.40539,14.17523 5.18868,18.66818 -1.34676,4.97319 -13.65566,30.63239 -15.69415,32.71612 -0.60649,0.61996 -1.51732,-5.68004 -2.02407,-14 z m 32.44692,8.97623 c -2.00879,-4.40879 -0.36082,-14.2169 3.30196,-19.65209 1.63481,-2.42589 5.35463,-5.77909 8.26628,-7.45155 l 5.29391,-3.04084 63.70858,0.18652 c 72.17914,0.21132 67.32485,-0.61401 65.56121,11.1468 l -0.87837,5.85737 -20.46859,0.42519 -20.46859,0.42519 -5.06046,4.77881 c -12.08607,11.41343 -7.58838,10.55452 -55.26885,10.55452 h -42.51544 z m 22.19548,-53.64333 c -1.46667,-0.31015 -4.03179,-0.85577 -5.70028,-1.2125 -5.38776,-1.15192 -13.88732,-10.16578 -17.89834,-18.98139 -4.97625,-10.937 -10.74907,-32.45183 -9.13934,-34.06156 2.40425,-2.40425 9.8593,3.79608 15.31044,12.73363 9.06386,14.86086 15.38494,20.22424 29.62606,25.13749 13.8169,4.76688 40.46812,8.97858 40.46812,6.39519 0,-0.62568 -1.73288,-1.13761 -3.85084,-1.13761 -4.98262,0 -25.5629,-5.94083 -34.21,-9.87527 -7.98813,-3.63462 -15.95463,-10.33123 -18.77225,-15.77989 -2.56951,-4.96889 -1.38187,-6.27454 2.50502,-2.75394 4.75656,4.30831 20.56294,12.96743 34.34965,18.81757 14.65527,6.21869 26.78936,8.89116 51.97842,11.44797 l 18,1.82708 -18.66667,0.15067 c -21.65476,0.17478 -41.17459,1.99988 -59.99999,5.61 -12.91073,2.47587 -18.42157,2.86222 -24,1.68256 z"/>
    <g style="display:inline">
      <path style="fill:#162047" d="m 845.33937,696.03122 c -4.42453,0 -7.98582,3.51387 -7.98582,7.87946 v 16.48803 c 0,4.3656 3.56129,7.87946 7.98582,7.87946 h 32.28268 c 4.42452,0 7.98581,-3.51386 7.98581,-7.87946 v -16.48803 c 0,-4.36559 -3.56129,-7.87946 -7.98581,-7.87946 z m 1.48691,6.81543 h 29.16016 c 1.31793,0 2.37907,1.047 2.37907,2.34739 v 14.48593 c 0,1.30039 -1.06114,2.34739 -2.37907,2.34739 h -29.16016 c -1.31794,0 -2.37907,-1.047 -2.37907,-2.34739 v -14.48593 c 0,-1.30039 1.06113,-2.34739 2.37907,-2.34739 z" />
      <path style="fill:#162047" d="m 770.98828,695.87109 v 0.004 H 763.875 v 32.5 H 771 V 705.0372 l 29.125,22.7168 V 727.75 H 808 v -31.875 h -7.875 v 22 L 771,695.88086 v -0.006 h -0.006 z" />
      <rect style="fill:#162047" width="6.5669417" height="31.875" x="727.80804" y="696" />
      <path style="fill:#162047" d="m 656.1875,696.3125 v 22.3125 h 0.002 c -0.0277,9.17054 8.19278,9.1875 8.24805,9.1875 h 32.5 v -6.125 H 664.5 c -0.022,-0.005 -0.0446,-0.007 -0.0684,-0.008 -2.16067,-0.0437 -2.0034,-2.91035 -1.99414,-3.05469 1.9e-4,-0.003 -5e-5,-0.005 0,-0.006 V 696.3125 Z" />
      <path style="fill:#49a5ce" d="m 1186.509,598.9375 h -48.125 c 0,0 -8.75,0.0625 -8.75,7.375 v 7.3125 19 c 0,0 -0.6875,8.8125 9.9375,8.625 10.625,-0.1875 47.0625,0.0625 47.0625,0.0625 l -0.125,-9.3125 -45.0937,0.15625 c -2.2912,0.0195 -2.5766,-0.35414 -2.625,-4.28125 -0.054,-4.42398 0.6752,-4.90073 2.6671,-4.90625 l 41.1766,-0.21875 5e-4,-7.24556 -41.3024,-0.14964 c -2.1267,0.004 -2.6071,-0.59696 -2.6266,-3.83577 -0.017,-2.80049 0.4831,-3.89612 2.5885,-3.90188 11.6816,-0.032 45.0905,-0.11741 45.0905,-0.11741 z" />
      <rect style="fill:#49a5ce" width="7.6014309" height="42.338017" x="1105.473" y="598.91943" />
      <path style="fill:#49a5ce" d="m 1073.8622,598.91516 -42.375,0.125 0.01,42.21875 9.4649,-0.004 0.027,-15.71484 27.0117,0.13281 11.1211,15.58203 11.2739,-0.003 -10.895,-16.57875 c 0,0 12.2168,-0.50781 12.2168,-7.75781 v -7.29492 l -0.08,-3.42578 c 0,0 0.022,-7.2793 -9.2735,-7.2793 z m 2.1875,8.9375 h 1.7813 c 5.0607,0 4.9414,3.43359 4.9414,3.43359 v 3.00391 c 0,3.2835 -4.7813,3.375 -4.7813,3.375 h -37.2499 l -0.125,-9.75 z" />
      <path style="fill:#49a5ce" d="m 1016.8125,598.875 h -48.125 c 0,0 -8.75,0.0625 -8.75,7.375 v 7.3125 19 c 0,0 -0.6875,8.8125 9.9375,8.625 10.625,-0.1875 47.0625,0.0625 47.0625,0.0625 l -0.125,-9.3125 -45.09375,0.15625 c -2.29116,0.0195 -2.57662,-0.35414 -2.625,-4.28125 -0.0545,-4.42398 0.6752,-4.90073 2.66714,-4.90625 l 41.17661,-0.21875 5e-4,-7.24556 -41.30244,-0.14964 c -2.1267,0.004 -2.60711,-0.59696 -2.62654,-3.83577 -0.0168,-2.80049 0.4831,-3.89612 2.58844,-3.90188 11.68163,-0.032 45.09054,-0.11741 45.09054,-0.11741 z" />
      <path style="fill:#49a5ce" d="m 944.21795,598.87348 -48.61359,0.004 c 0,0 -9.54594,-0.0947 -9.63433,7.86021 l -0.0884,7.95495 c 0,0 -0.53033,10.34143 12.81631,10.25304 l 13.34665,-0.0884 19.79899,-0.35356 c 0,0 5.03813,-0.17677 5.12652,3.97748 0.0884,4.15425 -4.68458,4.15425 -4.68458,4.15425 l -46.40389,0.006 0.006,8.57367 49.23783,0.006 c 0,0 10.50717,-0.62977 10.41878,-9.29183 -0.0884,-8.66205 -0.0884,-6.98268 -0.0884,-6.98268 0,0 0.44194,-8.66205 -8.22012,-8.83883 l -8.66253,-0.17784 -28.01908,-0.0883 c 0,0 -5.92202,0.35356 -5.92202,-4.24264 0,-4.59619 5.48008,-4.15425 5.48008,-4.15425 l 44.10578,-0.0884 z" />
      <path style="fill:#49a5ce" d="m 868.94584,598.92189 -48.61359,0.004 c 0,0 -9.54594,-0.0947 -9.63433,7.86021 l -0.0884,7.95495 c 0,0 -0.53033,10.34143 12.81631,10.25304 l 13.34665,-0.0884 19.79899,-0.35356 c 0,0 5.03813,-0.17677 5.12652,3.97748 0.0884,4.15425 -4.68458,4.15425 -4.68458,4.15425 l -46.40389,0.006 0.006,8.57367 49.23783,0.006 c 0,0 10.50717,-0.62977 10.41878,-9.29183 -0.0884,-8.66205 -0.0884,-6.98268 -0.0884,-6.98268 0,0 0.44194,-8.66205 -8.22012,-8.83883 L 853.30108,615.97835 825.282,615.89 c 0,0 -5.92202,0.35356 -5.92202,-4.24264 0,-4.59619 5.48008,-4.15425 5.48008,-4.15425 l 44.10578,-0.0884 z" />
      <path style="fill:#49a5ce" d="m 744.94727,598.6875 c -5.75366,0 -10.38477,4.63111 -10.38477,10.38477 v 21.73046 c 0,5.75366 4.63111,10.38477 10.38477,10.38477 h 41.98046 c 5.75366,0 10.38477,-4.63111 10.38477,-10.38477 v -21.73046 c 0,-5.75366 -4.63111,-10.38477 -10.38477,-10.38477 z m 1.93359,8.98242 h 37.91992 c 1.71385,0 3.09375,1.3799 3.09375,3.09375 v 19.0918 c 0,1.71385 -1.3799,3.09375 -3.09375,3.09375 h -37.91992 c -1.71385,0 -3.09375,-1.3799 -3.09375,-3.09375 v -19.0918 c 0,-1.71385 1.3799,-3.09375 3.09375,-3.09375 z" />
      <path style="fill:#49a5ce" d="m 702.53974,598.92893 -42.375,0.125 0.008,42.21875 9.46485,-0.004 0.0273,-15.71484 27.01172,0.13281 11.12109,15.58203 11.27395,-0.003 -10.89504,-16.57875 c 0,0 12.2168,-0.50781 12.2168,-7.75781 v -7.29492 l -0.0801,-3.42578 c 0,0 0.022,-7.2793 -9.27344,-7.2793 z m 2.1875,8.9375 h 1.78125 c 5.06075,0 4.94141,3.43359 4.94141,3.43359 l -0.004,3.00391 c -0.004,3.2835 -4.78125,3.375 -4.78125,3.375 h -37.24991 l -0.125,-9.75 z" />
      <path style="fill:#49a5ce" d="m 627.61049,598.92007 -42.375,0.125 0.008,42.21875 9.46485,-0.004 0.0273,-15.71484 27.01172,0.13281 11.12109,15.58203 11.27395,-0.003 -10.89504,-16.57875 c 0,0 12.2168,-0.50781 12.2168,-7.75781 v -7.29492 l -0.0801,-3.42578 c 0,0 0.022,-7.2793 -9.27344,-7.2793 z m 2.1875,8.9375 h 1.78125 c 5.06075,0 4.94141,3.43359 4.94141,3.43359 l -0.004,3.00391 c -0.004,3.2835 -4.78125,3.375 -4.78125,3.375 h -37.24991 l -0.125,-9.75 z" />
      <path style="fill:#49a5ce" d="m 560.6875,598.875 -37.42188,0.0625 -6.20312,-0.0312 c -7.09017,-0.0358 -7.5625,7.2187 -7.5625,7.2187 l 0.125,34.75 9,0.125 V 625.375 L 560,625.5 560.0625,641 h 9.0625 v -29 -5.75 c 0,-6.625 -8.4375,-7.375 -8.4375,-7.375 z m -2.65625,8.55859 c 0,0 2.227,0.0179 2.22266,2.1211 l -0.004,1.82031 -0.008,6.24609 -42.05469,0.004 -0.0215,-8.09375 c 0,0 0.007,-2.09375 1.82812,-2.09375 h 0.31836 z" />
      <path style="fill:#49a5ce" d="m 493.375,598.90625 -48.43371,0.0277 c 0,0 -9.08317,-0.41194 -9.07387,9.35225 l 0.008,7.96339 v 16.375 c 0,0 6e-5,8.4889 10.23895,8.63951 l 7.51496,0.005 39.74609,-0.0161 v -9.37847 l -42.75,0.25 c 0,0 -5.65105,0.56884 -5.625,-4.3125 0.029,-5.43238 -0.0209,-10.95916 0.0625,-16.4375 0,0 -0.1875,-3.875 3.1875,-4 l 3.375,-0.125 41.75,-0.0156 z" />
    </g>
  </g>
</svg>
