<?xml version="1.0" encoding="UTF-8" standalone="no"?>
<!-- Created with Inkscape (http://www.inkscape.org/) -->

<svg
   width="48"
   height="48"
   viewBox="0 0 12.7 12.7"
   version="1.1"
   id="svg1"
   xml:space="preserve"
   xmlns="http://www.w3.org/2000/svg"
   xmlns:svg="http://www.w3.org/2000/svg"><defs
     id="defs1" /><g
     id="layer1"><path
       style="fill:#ffffff;stroke-width:0.0550459"
       d="M 6.0418004,12.600786 C 5.7836894,12.488419 4.9943731,11.994058 4.5807232,11.68569 3.7758153,11.085645 2.8842601,10.100185 2.3129806,9.179094 1.5176996,7.8968368 0.99318829,6.2643885 0.83239015,4.5710182 0.78696195,4.0926132 0.79838884,2.3432657 0.84726097,2.2944217 0.86777778,2.2739148 1.1599763,2.185939 1.4965875,2.0989197 3.0450256,1.6986238 4.5527979,1.0620597 5.8432988,0.26378876 6.0583685,0.13075207 6.2550788,0.0219038 6.2804338,0.0219038 c 0.045601,0 0.194034,0.0842542 0.7530542,0.42745138 1.0529536,0.64643632 3.181927,1.49405952 4.310122,1.71601792 0.14677,0.028875 0.293635,0.069052 0.326369,0.089284 0.113631,0.070227 0.151612,1.2705422 0.06861,2.1684167 -0.211061,2.2833177 -0.93752,4.1787725 -2.2025537,5.7468542 -0.3816817,0.473116 -1.2386394,1.285038 -1.7312897,1.640305 -0.5294442,0.381801 -1.3700892,0.853523 -1.5169869,0.851247 -0.06076,-9.54e-4 -0.1714422,-0.02825 -0.2459602,-0.06069 z M 6.626902,11.375835 C 7.3610448,10.923205 8.2192826,10.170359 8.7469118,9.5161587 10.016601,7.9418906 10.747279,5.8225604 10.748036,3.7119157 l 2.11e-4,-0.6622658 -0.339,-0.091527 C 9.0966221,2.603712 7.2471586,1.8222207 6.3865177,1.2583069 6.2933882,1.1972865 6.26695,1.2046052 5.9914179,1.3676772 4.8833035,2.0235086 3.3798168,2.6381607 2.010906,2.9949811 l -0.1859014,0.048458 v 0.6462818 c 0,1.0627179 0.1556632,2.0462065 0.4787281,3.0246316 0.660816,2.0013274 1.7950949,3.4845275 3.5157787,4.5972825 0.2194424,0.141912 0.4201435,0.258022 0.4460022,0.258022 0.025858,0 0.1884819,-0.08721 0.3613835,-0.19382 z M 4.8592829,7.4094133 C 4.3331789,6.9015589 3.8781256,6.4549144 3.8480533,6.4168699 3.8179805,6.3788259 3.7933765,6.2717489 3.7933765,6.1789204 c 0,-0.3448897 0.2174496,-0.5581059 0.5691884,-0.5581059 0.1725758,0 0.2075498,0.026786 0.863653,0.6614461 L 5.9100118,6.9437062 7.1523515,5.6915223 c 0.727303,-0.7330671 1.2875649,-1.2635357 1.3514253,-1.2795639 0.1499686,-0.037639 0.4144824,0.048837 0.5319958,0.173922 0.1089085,0.1159287 0.1634007,0.3583697 0.1196886,0.532524 -0.017539,0.069857 -0.6211313,0.7208139 -1.5434564,1.6645513 -1.3705592,1.4023804 -1.5280552,1.54983 -1.6554171,1.54983 -0.1238551,0 -0.2555871,-0.1108511 -1.0973048,-0.9233724 z"
       id="path4" /></g></svg>
