<?xml version="1.0" encoding="UTF-8" standalone="no"?>
<!-- Created with Inkscape (http://www.inkscape.org/) -->

<svg
   width="47.755573"
   height="34.004288"
   viewBox="0 0 12.635329 8.9969678"
   version="1.1"
   id="svg1"
   xml:space="preserve"
   xmlns="http://www.w3.org/2000/svg"
   xmlns:svg="http://www.w3.org/2000/svg"><defs
     id="defs1" /><g
     id="layer1"
     transform="translate(-0.03815709,-1.9588006)"><path
       style="fill:#ffffff;stroke-width:0.140138"
       d="m 0.30159992,10.910345 c -0.0646714,-0.02866 -0.13558317,-0.08574 -0.1575818,-0.126849 -0.0410339,-0.07667 -0.05647014,-0.532793 -0.0192901,-0.569974 0.011389,-0.01139 0.11468986,0.03589 0.22955669,0.105055 l 0.20884907,0.125762 H 1.4018496 c 0.7928063,0 0.8431578,0.0042 0.9198637,0.0756 0.1050764,0.09789 0.1026522,0.191871 -0.00828,0.320921 l -0.089426,0.104033 -0.9024125,0.0088 c -0.70968219,0.0069 -0.92752527,-0.0024 -1.01999684,-0.04333 z m 10.20282108,0.01127 c -0.11283,-0.06323 -0.166852,-0.147165 -0.166852,-0.259244 0,-0.208069 0.04139,-0.21803 0.905836,-0.21803 h 0.789305 l 0.2173,-0.109609 c 0.201211,-0.101492 0.22219,-0.105185 0.283311,-0.04987 0.104751,0.0948 0.09093,0.422981 -0.02342,0.556 l -0.08943,0.104033 -0.920951,0.0091 c -0.627381,0.0063 -0.944588,-0.0041 -0.995105,-0.03242 z M 0.59489277,10.061384 C 0.37915644,9.9827088 0.22625701,9.8291768 0.14357825,9.6081979 0.07045048,9.4127474 0.06562318,9.3216129 0.05957634,8.0223333 0.05344687,6.7050397 0.05678857,6.6307052 0.13483626,6.348093 0.28864086,5.7911746 0.43814366,5.6016351 1.065358,5.1683794 L 1.4519845,4.9013122 1.2692871,4.8746786 C 1.1688035,4.86003 0.91973821,4.8515887 0.71580884,4.85592 0.24850055,4.8658459 0.12160932,4.8201632 0.06177714,4.6204612 0.02870887,4.510089 0.03004827,4.4396896 0.06777948,4.3049168 0.1096297,4.1554426 0.13729949,4.1222661 0.26776551,4.0651286 0.44697064,3.9866459 1.1005128,3.9025234 1.2757026,3.9353892 c 0.145386,0.027275 0.2566551,0.155294 0.290148,0.3338268 0.013289,0.070838 0.038709,0.1377857 0.056489,0.148774 C 1.6401196,4.428978 1.7587134,4.2501986 1.8858822,4.0207014 2.3613117,3.1627146 2.6485756,2.7185138 2.8703917,2.4983425 3.3181314,2.0539222 4.2394148,1.9286233 6.7946578,1.9646236 8.5604195,1.9895006 9.1206457,2.0565516 9.5717736,2.2969999 9.9169182,2.48096 10.103695,2.729532 10.745427,3.8589604 c 0.17334,0.3050725 0.334848,0.5610889 0.358906,0.5689253 0.02722,0.00887 0.05359,-0.051456 0.06984,-0.1597776 0.04931,-0.3288195 0.206877,-0.3865514 0.810331,-0.2969002 0.585939,0.087049 0.688983,0.1630871 0.688983,0.5084121 0,0.3119418 -0.09758,0.3582612 -0.824368,0.3913227 -0.280743,0.012771 -0.510443,0.033999 -0.510443,0.047173 0,0.013174 0.15291,0.1315459 0.3398,0.2630484 0.579705,0.4079016 0.760446,0.6355792 0.890623,1.1219126 0.06059,0.2263541 0.07448,0.4435513 0.09204,1.4386773 0.02956,1.6753399 -0.02357,1.9805785 -0.389431,2.2374628 l -0.16077,0.1128812 -5.6975654,0.0067 c -4.3246228,0.0051 -5.72670345,-0.0039 -5.81848238,-0.0374 z M 9.4847736,9.4411961 c 0,-0.073073 -0.2861476,-0.4608787 -0.454714,-0.6162578 C 8.9377425,8.7398433 8.7978942,8.6523616 8.7192855,8.6305343 8.6248115,8.6043017 7.8096346,8.5910544 6.3145982,8.5914558 3.7770505,8.5921425 3.8827168,8.5813295 3.6229824,8.8667587 3.491452,9.0113008 3.2188934,9.4061921 3.2186969,9.4525 c -6.49e-5,0.015295 1.4097758,0.027809 3.1329793,0.027809 2.172659,0 3.1330974,-0.01199 3.1330974,-0.039113 z M 2.2688748,9.4077543 C 2.3751872,9.3673343 2.6994273,8.9728166 2.6994626,8.8838382 2.6994817,8.8355541 2.5980597,8.8131891 2.1340453,8.759156 1.8230529,8.7229418 1.3850681,8.6619948 1.1607457,8.6237182 0.93642341,8.5854421 0.73203048,8.5539521 0.7065393,8.5537405 0.6387794,8.55318 0.6471774,8.9271889 0.7189527,9.106573 c 0.0757224,0.1892491 0.18884761,0.2605054 0.4721528,0.2974041 0.3303277,0.043022 0.968661,0.04526 1.0777693,0.00378 z m 9.1331742,-0.00337 c 0.354028,-0.047603 0.509572,-0.1205841 0.579366,-0.2718395 0.0699,-0.1514978 0.114777,-0.5278779 0.06649,-0.5577214 -0.02023,-0.012501 -0.175566,0.00131 -0.345195,0.030663 -0.169629,0.029366 -0.608749,0.090542 -0.975821,0.1359454 -0.367073,0.045403 -0.682922,0.096409 -0.701888,0.1133457 -0.048231,0.043072 0.229088,0.4355114 0.367331,0.5198162 0.131527,0.080209 0.544198,0.092384 1.009717,0.029791 z M 8.1652969,7.738362 c 0.075231,-0.016967 0.1901545,-0.0675 0.2553849,-0.1122938 0.1192404,-0.081883 0.4183216,-0.4586017 0.440442,-0.5547745 0.010025,-0.04359 -0.3754754,-0.052815 -2.4909085,-0.05961 -1.3765235,-0.00442 -2.5153709,-3.643e-4 -2.5307721,0.00903 -0.033702,0.020537 0.1605122,0.3162543 0.3207322,0.4883571 0.2117495,0.227454 0.2707269,0.2427186 1.0420805,0.2697107 0.8410513,0.029431 2.7700122,0.00312 2.963041,-0.040414 z M 3.023753,7.3839833 c 0.1379339,-0.057632 0.2689821,-0.1560006 0.2689821,-0.2019051 0,-0.073 -0.2409002,-0.371914 -0.378774,-0.4699907 C 2.3966327,6.3440856 1.221788,5.9015602 0.94639673,5.9709705 0.78013453,6.0128761 0.69757035,6.1903802 0.6974085,6.5062703 0.69714223,7.0384576 0.83583264,7.1537536 1.6612998,7.3075331 1.9366044,7.3588208 2.195224,7.4078997 2.23601,7.4165978 c 0.1898791,0.040494 0.6592837,0.021059 0.787743,-0.032615 z m 7.721675,-0.018563 c 0.993729,-0.1620481 1.196731,-0.2743816 1.274606,-0.7053175 0.03409,-0.1886498 -0.03692,-0.5154105 -0.134888,-0.620687 -0.07256,-0.077979 -0.106693,-0.086791 -0.271589,-0.070121 -0.272435,0.02754 -0.822361,0.2194075 -1.310815,0.4573394 C 9.9708103,6.5883216 9.8356227,6.6779637 9.6809487,6.8389416 9.4389836,7.0907682 9.4016433,7.2012062 9.525819,7.297754 c 0.2066771,0.1606936 0.536815,0.1790103 1.219609,0.067666 z M 10.128335,4.998266 C 10.534179,4.9473043 10.655011,4.8940196 10.646475,4.7697764 10.643025,4.7196837 10.49707,4.4161262 10.322111,4.0952049 9.7725227,3.0871131 9.5751349,2.8213799 9.2784117,2.6901252 8.8994951,2.5225123 7.9170983,2.435536 6.4072933,2.4359313 4.8976638,2.4363265 3.8324976,2.524181 3.4417471,2.6805283 3.163464,2.7918751 2.8413382,3.2473656 2.2858227,4.315022 2.0929134,4.6857785 2.058012,4.7791208 2.0917303,4.8341152 c 0.059622,0.097244 0.3620427,0.1558083 0.9970753,0.1930862 0.7947803,0.046656 6.6285072,0.022676 7.0395294,-0.028935 z"
       id="path4" /></g></svg>
