<?xml version="1.0" encoding="UTF-8" standalone="no"?>
<!-- Created with Inkscape (http://www.inkscape.org/) -->

<svg
   width="45.757168"
   height="46.821819"
   viewBox="0 0 12.106584 12.388273"
   version="1.1"
   id="svg1"
   xml:space="preserve"
   xmlns="http://www.w3.org/2000/svg"
   xmlns:svg="http://www.w3.org/2000/svg"><defs
     id="defs1" /><g
     id="layer1"
     transform="translate(-0.34420452,-0.15122811)"><path
       style="fill:#ffffff;stroke-width:0.454557"
       d="M 0.57240912,12.350969 C 0.40954702,12.073066 0.34420452,11.812895 0.34420452,11.44234 V 11.112807 L 1.4103663,8.9850594 C 2.4304009,6.9493688 2.475573,6.8490905 2.454437,6.6672975 2.4342956,6.4940633 2.4571188,6.4301762 2.7130497,5.9438407 2.867437,5.6504477 3.0005353,5.4103982 3.0088228,5.4103982 c 0.00828,0 0.1357359,0.089645 0.2832183,0.199213 C 3.4395233,5.719178 3.5903528,5.8276965 3.6272174,5.850763 3.6850426,5.8869455 3.5733353,6.1431669 2.8135489,7.7170716 1.5940877,10.243197 1.0767069,11.350799 1.0014096,11.596476 0.91797889,11.868693 0.84963769,12.1788 0.86884549,12.198007 0.92647036,12.255632 2.3427298,9.447296 3.8436577,6.2991781 3.9342215,6.1092248 3.987838,6.0407499 4.0337909,6.0563543 c 0.035201,0.011955 0.2112984,0.066499 0.3913296,0.1212112 0.2843869,0.086427 0.3184922,0.1068117 0.259969,0.1553815 -0.053053,0.044029 -0.061682,0.1013537 -0.040628,0.2698807 0.029305,0.2345456 -0.022387,0.3191018 -0.2321262,0.3797088 -0.2958317,0.085484 -0.3530149,0.2200067 -0.2353207,0.553588 0.099074,0.280805 -0.047674,0.5086938 -0.3854994,0.5986527 -0.09925,0.026428 -0.2172053,0.084803 -0.2621219,0.1297205 -0.097912,0.097912 -0.1088798,0.3547468 -0.023842,0.5582753 0.047817,0.1144429 0.048508,0.1655064 0.004,0.2950059 -0.072217,0.2100778 -0.1680768,0.3080702 -0.3982088,0.4070704 -0.1153883,0.049639 -0.2226322,0.1335078 -0.267206,0.208965 -0.070927,0.1200712 -0.071008,0.1356415 -0.00168,0.3284217 0.071058,0.197607 0.070647,0.206767 -0.017455,0.388759 -0.049625,0.102509 -0.090227,0.205811 -0.090227,0.229554 0,0.06952 -0.1345778,0.16746 -0.305547,0.222366 -0.087317,0.02804 -0.1895325,0.09795 -0.2271443,0.155354 -0.063238,0.09651 -0.06321,0.120553 3.663e-4,0.319361 l 0.068751,0.214992 -0.1276506,0.198926 c -0.1428776,0.222655 -0.3882044,0.459064 -0.5784978,0.557469 -0.1475649,0.07631 -0.60441371,0.189584 -0.76821315,0.190479 -0.0905743,5e-4 -0.13600601,-0.03767 -0.22441273,-0.188527 z m 5.02383708,-0.1325 c -0.096654,-0.03889 -0.1773457,-0.257758 -0.1782929,-0.483606 -6.365e-4,-0.155804 -0.025455,-0.253617 -0.082947,-0.327114 -0.07461,-0.09538 -0.082061,-0.174896 -0.082537,-0.88073 -5e-4,-0.7309368 0.00529,-0.7883672 0.099841,-0.9914317 C 5.4075103,9.4170343 5.520839,9.2445861 5.6041515,9.1523694 5.7777838,8.9601787 5.7556738,8.9333176 5.423843,8.9333176 c -0.2245486,0 -0.298534,-0.052237 -0.298534,-0.2107751 0,-0.1647685 0.1610438,-0.2906889 0.4093912,-0.3201019 0.3104962,-0.036774 0.420443,0.00232 0.4624295,0.1643281 L 6.032286,8.7024288 6.1506134,8.4928419 C 6.7456366,7.4389085 6.88477,7.2526312 7.1508478,7.1536879 c 0.2651533,-0.0986 0.84256,-0.1488609 1.7145308,-0.1492441 1.1850264,-5e-4 1.6364304,0.085491 1.8964624,0.3613557 0.113462,0.1203702 0.479199,0.739473 0.659675,1.116668 0.05242,0.1095673 0.107698,0.199213 0.122831,0.199213 0.01513,0 0.04551,-0.061336 0.0675,-0.1363037 l 0.04,-0.1363033 0.305192,0.010937 c 0.167857,0.00601 0.339784,0.029451 0.382064,0.052075 0.09765,0.052265 0.145275,0.2622751 0.08501,0.3748937 -0.03926,0.073364 -0.08658,0.086339 -0.314863,0.086339 -0.147761,0 -0.278425,0.015805 -0.290364,0.035123 -0.01195,0.019319 0.05455,0.108964 0.147756,0.1992125 0.09321,0.090249 0.219816,0.2490161 0.281356,0.3528164 0.11077,0.1868405 0.111889,0.1967679 0.111889,0.9925819 0,0.775875 -0.0033,0.807354 -0.09436,0.904403 -0.077,0.08205 -0.09436,0.148621 -0.09436,0.361874 0,0.221536 -0.01568,0.276998 -0.102938,0.364267 -0.09692,0.09692 -0.130148,0.102938 -0.568089,0.102938 -0.437942,0 -0.47117,-0.006 -0.56809,-0.102938 -0.08102,-0.08102 -0.102938,-0.146294 -0.102938,-0.30653 0,-0.38895 0.146648,-0.362418 -2.0363356,-0.368416 -2.2124475,-0.0061 -2.0737373,-0.03146 -2.0737373,0.379463 0,0.360148 -0.061154,0.399208 -0.6186082,0.395114 -0.247967,-0.0018 -0.4748375,-0.01296 -0.5041565,-0.02476 z m 4.3103101,-1.586601 c 0.081545,-0.07383 0.2514947,-0.356093 0.2514947,-0.417725 0,-0.01245 -0.6228021,-0.02264 -1.3840042,-0.02264 -0.7612022,0 -1.3840042,0.01017 -1.3840042,0.02264 0,0.06161 0.1791362,0.362149 0.2617165,0.439084 0.090715,0.08451 0.1288098,0.08705 1.128011,0.07499 0.9656145,-0.01165 1.040264,-0.01804 1.1267862,-0.09635 z M 6.9292664,10.367243 c 0.088447,-0.07163 0.090122,-0.08288 0.029728,-0.199664 C 6.8863799,10.027158 6.6655295,9.8907863 6.3159679,9.7705189 6.0137222,9.6665313 5.9015755,9.6668742 5.796342,9.7721098 c -0.063325,0.063324 -0.08388,0.139798 -0.08388,0.3120712 0,0.128177 0.021373,0.241401 0.048764,0.25833 0.099812,0.06168 0.318426,0.09217 0.6910169,0.09634 0.311709,0.0035 0.4007993,-0.0099 0.4770239,-0.0716 z m 4.8600526,-0.02497 c 0.119825,-0.108477 0.120518,-0.3920182 0.0014,-0.5435426 -0.105886,-0.1346129 -0.230913,-0.1409288 -0.558522,-0.028215 -0.359067,0.1235373 -0.555211,0.2486686 -0.640689,0.4087316 -0.07535,0.141094 -0.07521,0.145276 0.007,0.207094 0.06655,0.05005 0.189123,0.06028 0.593265,0.04946 0.429933,-0.0115 0.523151,-0.02609 0.597637,-0.09353 z M 11.08072,8.6552027 c 0,-0.049154 -0.339924,-0.6637717 -0.495581,-0.8960592 C 10.468557,7.5851661 10.39126,7.515714 10.270066,7.4760471 9.8332844,7.3330891 8.3875119,7.3085626 7.5694533,7.4302337 7.2957458,7.4709438 7.2249846,7.49857 7.127709,7.6027043 7.0217978,7.7160825 6.5933364,8.4344563 6.5279476,8.6082861 c -0.026083,0.069341 0.09889,0.073395 2.2625819,0.073395 1.2596045,0 2.2901905,-0.011914 2.2901905,-0.026478 z M 8.1037937,6.5511709 C 7.9890608,6.4574009 7.8989636,6.1470521 7.9196865,5.9169937 7.9493145,5.5880875 8.160301,5.3459057 8.5077508,5.2419872 9.0316108,5.0853062 9.5256092,5.4816172 9.527972,6.0604608 9.529472,6.4333836 9.3057188,6.7076147 9.15151,6.5218048 9.105036,6.4658068 9.10735,6.4309468 9.165665,6.3086605 9.236679,6.1597414 9.258014,5.9502849 9.20733,5.899601 9.191902,5.884173 9.148434,5.8994651 9.110733,5.933584 9.025109,6.011072 8.8518468,6.0343231 8.829348,5.971344 8.820078,5.945398 8.885398,5.888096 8.9745033,5.8440105 9.1562701,5.7540795 9.1582542,5.689369 8.9820433,5.598244 8.7129887,5.4591107 8.3599509,5.580685 8.2468273,5.8514288 c -0.055082,0.1318297 -0.05308,0.1677041 0.021146,0.3788861 0.080465,0.228936 0.080511,0.2347448 0.00255,0.3127203 -0.075106,0.075106 -0.084224,0.075551 -0.166709,0.00814 z M 4.5963119,5.9592747 C 4.003996,5.7987681 3.210169,5.3143681 2.8978896,4.9228832 2.4891028,4.4104129 2.32001,3.6151609 2.4664982,2.8940274 2.5508807,2.4786286 2.8825533,1.7166492 3.1298052,1.3701567 3.3808764,1.0183127 3.7954811,0.63722608 4.1090041,0.47011974 5.141552,-0.08022273 6.4006185,0.09406152 7.1995889,0.89792832 8.013451,1.7167783 8.1703761,2.7790659 7.6578573,4.0001312 7.3124503,4.8230557 6.7741276,5.4823727 6.2157363,5.7663864 5.7189311,6.0190753 5.0923889,6.093702 4.5963119,5.9592747 Z M 7.0916208,4.0952867 C 7.5830386,3.1101691 7.6062233,2.3735775 7.1692809,1.6279911 6.6401585,0.72511192 5.4067339,0.37975028 4.4434173,0.86474395 4.1959762,0.98932104 3.7481521,1.3374504 3.6665743,1.4686458 3.6370058,1.5161992 3.7179197,1.4695095 3.8463841,1.3648592 4.2829988,1.0092315 4.6902842,0.87143399 5.314037,0.86830484 5.9153395,0.86530562 6.414678,1.0969499 6.878037,1.5939021 6.9318059,1.6515689 7.0548486,1.8591694 7.1514659,2.0552369 7.3232542,2.40385 7.3270738,2.4209854 7.3244188,2.8311181 7.3228278,3.0793051 7.2928998,3.3617988 7.2511406,3.52312 7.1817649,3.7911383 6.9198498,4.3586013 6.7298033,4.6526456 L 6.6330942,4.8022752 6.7562591,4.6614699 C 6.8240002,4.5840271 6.9749126,4.3292447 7.0916208,4.0952867 Z M 5.9633406,2.9782936 C 6.366305,2.7727167 6.5890786,2.1665538 6.3996763,1.7910324 6.1094005,1.2155129 5.3976814,1.0742986 4.9417616,1.5017635 4.7852924,1.6484675 4.6228544,1.9944701 4.6228544,2.1810559 c 0,0.3156063 0.2809204,0.7107792 0.5948258,0.8367459 0.1767716,0.070936 0.570012,0.050101 0.7456604,-0.03951 z m 3.523244,2.5570731 C 9.3964588,5.3587051 9.3953651,5.3437643 9.4591612,5.1607007 9.7822277,4.233625 9.3471999,3.1345824 8.3590526,2.3814176 8.2052734,2.2642075 8.1596032,2.1942559 8.08349,1.9593519 8.0333115,1.8044882 8.0009202,1.6777814 8.0115092,1.6777814 c 0.010591,0 0.1739524,0.1029341 0.3630293,0.2287415 0.56226,0.3741146 1.032651,0.9184097 1.3001557,1.5044234 0.1862845,0.4080891 0.2480883,0.6924219 0.2477255,1.1396919 -3.356e-4,0.4142614 -0.077795,0.7367815 -0.2410727,1.003759 L 9.5804568,5.7193653 Z"
       id="path4" /></g></svg>
