<?xml version="1.0" encoding="UTF-8" standalone="no"?>
<!-- Created with Inkscape (http://www.inkscape.org/) -->

<svg
   width="512"
   height="512"
   viewBox="0 0 135.46666 135.46667"
   version="1.1"
   id="svg1"
   xml:space="preserve"
   inkscape:version="1.4.3 (0d15f75, 2025-12-25)"
   sodipodi:docname="reparation.svg"
   xmlns:inkscape="http://www.inkscape.org/namespaces/inkscape"
   xmlns:sodipodi="http://sodipodi.sourceforge.net/DTD/sodipodi-0.dtd"
   xmlns="http://www.w3.org/2000/svg"
   xmlns:svg="http://www.w3.org/2000/svg"><sodipodi:namedview
     id="namedview1"
     pagecolor="#ffffff"
     bordercolor="#000000"
     borderopacity="0.25"
     inkscape:showpageshadow="2"
     inkscape:pageopacity="0.0"
     inkscape:pagecheckerboard="0"
     inkscape:deskcolor="#d1d1d1"
     inkscape:document-units="mm"
     inkscape:zoom="0.71891835"
     inkscape:cx="396.42889"
     inkscape:cy="338.70328"
     inkscape:window-width="1920"
     inkscape:window-height="1009"
     inkscape:window-x="-8"
     inkscape:window-y="-8"
     inkscape:window-maximized="1"
     inkscape:current-layer="layer1" /><defs
     id="defs1" /><g
     inkscape:label="Calque 1"
     inkscape:groupmode="layer"
     id="layer1"><path
       style="fill:#09365f;fill-opacity:1;stroke-width:0.495546"
       d="m 43.04412,119.67812 c -5.271136,-0.50085 -10.451032,-2.51887 -12.659518,-4.93197 -0.908757,-0.99296 -1.220329,-1.70275 -1.224014,-2.78843 -0.0046,-1.34031 0.320425,-1.87164 2.398076,-3.92091 0.980695,-0.96729 1.665078,-1.71534 1.520855,-1.66234 -3.498887,1.28588 -4.497898,1.42727 -9.657557,1.3668 l -3.715987,-0.0435 -0.90682,-0.42943 c -1.735049,-0.82165 -4.240384,-3.73141 -5.105403,-5.92956 -0.31685,-0.80516 -0.398199,-1.2373 -0.448937,-2.384821 -0.05484,-1.240316 0.175129,-4.43306 0.319309,-4.43306 0.0301,0 1.12829,0.324506 2.44043,0.721123 1.312141,0.396617 2.466493,0.721123 2.565228,0.721123 0.09874,0 -0.490243,-0.524239 -1.308841,-1.164975 -2.942737,-2.303347 -4.796938,-4.451558 -6.067527,-7.0296 C 9.4339638,84.198584 9.1101545,81.752908 9.1102817,72.034961 9.1103941,63.447172 9.423962,61.374323 11.390279,56.963007 11.816458,56.006909 11.982157,55.496988 11.885984,55.437555 11.80653,55.38844 11.37999,55.308739 10.938118,55.26043 10.496245,55.212092 8.9369357,55.000897 7.4729857,54.791052 4.4223246,54.353751 3.9640162,54.177049 3.4023067,53.221629 L 3.054602,52.630213 3.0728771,49.537804 c 0.019844,-3.357078 0.047688,-3.50559 0.7894771,-4.210197 0.7249562,-0.688615 1.0386336,-0.741752 5.6389291,-0.955286 7.4394937,-0.345318 7.4094017,-0.343064 8.0108847,-0.60143 0.60027,-0.257851 1.629593,-1.236458 2.239501,-2.129145 0.206483,-0.302224 0.982851,-1.611513 1.725259,-2.909529 0.74241,-1.298023 1.832186,-3.186053 2.421728,-4.195624 0.589541,-1.00957 1.915055,-3.340108 2.945587,-5.17897 4.024875,-7.181911 4.267181,-7.572611 5.758928,-9.285838 0.832362,-0.955943 2.585083,-2.315087 3.819733,-2.962006 1.143229,-0.599018 3.29745,-1.334789 4.622916,-1.578951 2.875098,-0.52962 11.084806,-1.11266 19.633019,-1.394308 5.11499,-0.16853 17.000239,-0.09251 21.24033,0.135866 7.601495,0.409413 12.314617,0.780514 14.322253,1.127699 3.567574,0.616954 6.692468,2.152724 8.834878,4.342027 1.67668,1.713379 1.9341,2.142387 8.05121,13.417791 4.34747,8.013533 4.68779,8.596829 5.57458,9.554659 1.21253,1.309685 1.09326,1.282527 6.6811,1.521184 6.3028,0.2692 7.12224,0.345226 7.72302,0.716529 0.26063,0.161077 0.63283,0.564089 0.82709,0.895592 l 0.35323,0.602723 0.004,3.089815 c 0.003,2.647454 -0.0281,3.148025 -0.21657,3.49646 -0.29285,0.541333 -1.02575,1.171215 -1.56605,1.345931 -0.48131,0.155635 -4.4797,0.748656 -5.96507,0.884708 -0.5163,0.04728 -1.00455,0.12666 -1.08499,0.176369 -0.0968,0.05979 0.22896,0.863359 0.9628,2.375087 2.35685,4.85521 2.99894,7.955498 3.01208,14.54378 0.009,4.439576 -0.33045,7.288924 -1.28027,10.751284 -1.11939,4.080519 -3.59039,8.820977 -6.16803,11.832963 -0.98425,1.150107 -0.99352,1.141012 0.76692,0.751829 0.64342,-0.142243 1.19308,-0.235392 1.22147,-0.207011 0.0284,0.02841 0.11754,0.658248 0.19813,1.399682 0.28005,2.576756 -0.21266,5.518633 -1.29117,7.709303 -1.51369,3.07461 -4.23085,4.61268 -7.8404,4.43812 -2.86234,-0.13843 -5.0241,-1.1755 -8.27368,-3.96918 -2.21853,-1.90727 -1.343,-1.7159 -8.719029,-1.90581 -5.005933,-0.1289 -7.907323,-0.13053 -13.635771,-0.008 -9.023798,0.1935 -14.20436,0.38797 -14.855471,0.5576 -0.796633,0.20754 -1.404389,0.9325 -1.911914,2.2806 -1.102122,2.9275 -2.550898,5.20756 -4.618694,7.26884 -1.650749,1.64557 -3.303144,2.81595 -5.557668,3.93649 -4.417311,2.19548 -9.039852,2.98982 -14.422451,2.47837 z m 7.342339,-5.54911 c 5.388367,-0.97754 8.683086,-3.65177 11.622558,-9.43366 1.416855,-2.78693 2.139519,-3.72966 3.560055,-4.64419 0.540797,-0.348154 5.051388,-2.224733 13.465612,-5.602193 6.958828,-2.793272 12.812736,-5.141519 13.008674,-5.218344 0.26101,-0.102315 0.576519,-0.09357 1.180021,0.03272 4.112497,0.860567 8.817411,1.160495 12.446171,0.793418 8.20647,-0.830159 14.50464,-5.172077 16.73812,-11.539148 0.8884,-2.532587 1.20195,-5.015523 1.20414,-9.535266 10e-4,-2.9788 -0.0711,-3.404597 -0.69325,-4.070965 -0.85385,-0.914481 -1.88972,-0.917061 -4.81899,-0.01201 -2.48658,0.768274 -5.15262,1.720386 -7.40106,2.643107 -3.84922,1.579656 -3.87191,1.58702 -4.91674,1.595882 -1.87698,0.0159 -3.27334,-0.788118 -4.06451,-2.340333 -0.43893,-0.861147 -0.45889,-0.960755 -0.45889,-2.289549 0,-1.333606 0.018,-1.422423 0.44962,-2.218512 0.78007,-1.438762 1.04946,-1.594772 6.04048,-3.498163 3.84653,-1.466931 4.23774,-1.659928 4.62065,-2.279486 0.63704,-1.030746 0.25369,-2.216696 -0.97696,-3.022346 -0.82996,-0.543341 -2.93496,-1.375952 -4.16814,-1.648664 -1.52016,-0.336181 -5.33336,-0.409366 -7.21123,-0.138406 -5.650584,0.815325 -10.112378,3.322083 -13.190271,7.410659 -1.426261,1.894607 -2.732483,4.701045 -3.330938,7.156547 l -0.288592,1.184155 -4.870312,1.954273 c -2.678668,1.074858 -9.649381,3.88242 -15.490469,6.239041 -5.84109,2.356621 -10.836474,4.361691 -11.100853,4.455717 -0.432611,0.153861 -0.648981,0.130017 -2.163369,-0.238424 -2.560932,-0.623069 -3.566231,-0.743129 -6.206083,-0.741172 -1.985513,0.0014 -2.695056,0.05541 -3.910778,0.297482 -3.987739,0.793948 -7.192501,2.461078 -9.861304,5.129878 -2.539791,2.539789 -4.134009,5.524929 -4.974281,9.314234 -0.484533,2.185058 -0.663902,4.928431 -0.378053,5.782193 0.378393,1.130165 1.571672,2.086665 2.597046,2.081715 0.747805,-0.004 1.442646,-0.3175 2.367146,-1.06936 1.936525,-1.574903 5.307178,-3.686401 8.14294,-5.10103 1.170449,-0.58389 2.312033,-1.091465 2.536848,-1.127945 0.645577,-0.10476 1.464139,0.183034 1.953372,0.686778 0.291614,0.300267 0.681787,1.028181 1.139597,2.126049 0.382888,0.918198 1.016889,2.377469 1.408886,3.242818 0.942484,2.08054 0.958351,3.09097 0.06129,3.9028 -0.140393,0.12704 -1.813212,1.0606 -3.717366,2.07455 -3.727469,1.98485 -4.221688,2.30803 -4.595548,3.00514 -0.555338,1.03548 -0.0768,2.66523 1.000148,3.40619 1.001292,0.68891 3.232532,1.27304 5.705602,1.49371 1.414754,0.12624 6.394271,-0.0322 7.539007,-0.23988 z M 29.108844,73.975822 c 1.693083,-0.813227 5.55425,-3.004857 6.822224,-3.872357 1.443605,-0.987659 2.361337,-1.973149 2.586553,-2.777541 0.266806,-0.95294 0.119971,-2.371469 -0.348741,-3.369064 -0.837547,-1.782625 -3.0707,-4.261766 -4.981853,-5.530625 -3.324205,-2.207014 -7.93689,-3.360456 -10.387967,-2.597603 -1.567787,0.487957 -2.632157,1.444896 -3.470241,3.11999 -1.093102,2.184803 -1.352622,5.837393 -0.59443,8.366242 0.965536,3.220418 3.623413,6.194074 6.347226,7.101333 0.337135,0.112293 0.956018,0.158016 1.732748,0.12801 1.089473,-0.04205 1.315108,-0.09797 2.294481,-0.568385 z m 58.710422,-25.8742 c 5.500301,-0.261399 7.980741,-0.474219 9.636819,-0.82683 3.620565,-0.770896 7.436735,-1.072145 12.351365,-0.975031 l 3.17344,0.06268 -0.1446,-0.275087 c -0.0795,-0.151289 -0.94078,-1.720599 -1.91386,-3.487344 -2.1183,-3.846008 -3.1442,-5.768012 -6.12353,-11.472407 -3.02226,-5.786578 -3.04843,-5.828817 -4.52051,-7.296126 C 99.158952,22.71566 98.848276,22.48815 97.642715,21.901332 95.935381,21.07027 95.233664,20.909579 91.883772,20.582528 84.295366,19.841673 80.284484,19.647293 70.840114,19.562691 c -10.665423,-0.09554 -17.162943,0.141034 -24.255939,0.883157 -2.979048,0.311691 -3.792031,0.445146 -4.916742,0.80711 -1.61532,0.519854 -2.8141,1.236373 -3.975352,2.376089 -1.045385,1.025999 -1.654271,1.925221 -3.323457,4.908182 -0.83758,1.49682 -3.067723,5.435532 -4.955873,8.752696 -4.575828,8.038961 -4.921145,8.661953 -4.921145,8.878257 0,0.25207 0.724268,0.578802 1.655712,0.746924 0.967999,0.174723 6.308304,0.592117 11.193381,0.874871 4.524101,0.261858 8.249624,0.206044 9.243476,-0.138483 1.308127,-0.45347 1.991376,-1.294328 2.120653,-2.609843 0.05647,-0.574534 -0.0665,-1.088575 -0.850663,-3.556105 -0.504168,-1.586468 -1.309614,-4.182509 -1.789877,-5.768979 -0.480268,-1.58647 -1.230287,-4.024793 -1.666714,-5.418496 -0.688159,-2.197588 -0.78604,-2.637199 -0.737283,-3.311287 0.106393,-1.470825 1.143675,-2.391335 2.942695,-2.61141 1.331423,-0.162873 5.743525,-0.456805 6.799072,-0.45295 1.024269,0.0037 1.485225,0.189301 2.17397,0.875144 0.292625,0.291393 1.295064,2.183409 3.11068,5.871142 1.473404,2.99266 3.68138,7.476731 4.906615,9.964601 1.225235,2.487868 2.368176,4.833585 2.539859,5.212697 0.527709,1.165216 0.956777,1.706083 1.607238,2.026016 0.544309,0.267717 0.871479,0.308288 3.099694,0.384335 3.368419,0.114972 13.186596,0.02544 16.979152,-0.154758 z"
       id="path1" /></g></svg>
