<?xml version="1.0" encoding="UTF-8" standalone="no"?>
<!-- Created with Inkscape (http://www.inkscape.org/) -->

<svg
   width="512"
   height="512"
   viewBox="0 0 135.46667 135.46667"
   version="1.1"
   id="svg1"
   xml:space="preserve"
   inkscape:version="1.4.3 (0d15f75, 2025-12-25)"
   sodipodi:docname="pare-brise.svg"
   xmlns:inkscape="http://www.inkscape.org/namespaces/inkscape"
   xmlns:sodipodi="http://sodipodi.sourceforge.net/DTD/sodipodi-0.dtd"
   xmlns="http://www.w3.org/2000/svg"
   xmlns:svg="http://www.w3.org/2000/svg"><sodipodi:namedview
     id="namedview1"
     pagecolor="#ffffff"
     bordercolor="#000000"
     borderopacity="0.25"
     inkscape:showpageshadow="2"
     inkscape:pageopacity="0.0"
     inkscape:pagecheckerboard="0"
     inkscape:deskcolor="#d1d1d1"
     inkscape:document-units="mm"
     inkscape:zoom="0.35945918"
     inkscape:cx="503.53423"
     inkscape:cy="627.33132"
     inkscape:window-width="1920"
     inkscape:window-height="1009"
     inkscape:window-x="-8"
     inkscape:window-y="-8"
     inkscape:window-maximized="1"
     inkscape:current-layer="layer1" /><defs
     id="defs1" /><g
     inkscape:label="Calque 1"
     inkscape:groupmode="layer"
     id="layer1"><path
       style="fill:#18416d;fill-opacity:1;stroke-width:0.464881"
       d="m 27.99998,108.21844 c -4.202508,-0.66298 -7.187215,-3.02442 -8.886265,-7.03065 C 17.219544,96.721504 9.3814205,73.849342 6.0972892,63.205001 4.7187782,58.737041 4.3585561,56.397775 4.6659399,53.909798 5.331612,48.521788 9.2064352,45.447829 18.90794,42.611401 28.500406,39.80685 40.695489,37.818987 53.634996,36.95071 c 9.002332,-0.60408 20.532519,-0.628411 29.519925,-0.06229 9.866546,0.621499 19.385629,1.891098 27.175739,3.624541 10.58283,2.354871 16.32129,4.599018 19.23354,7.521687 1.6172,1.622991 2.40951,3.283778 2.7616,5.78876 0.50601,3.600023 -0.20264,6.215177 -7.6584,28.262045 -3.72443,11.013216 -6.07153,17.58743 -6.94518,19.453377 -1.79133,3.82593 -4.47917,5.91934 -8.51107,6.6288 -1.05775,0.18613 -2.69871,0.19027 -20.70574,0.0522 -10.756323,-0.0825 -23.929594,-0.11566 -29.273928,-0.0738 -20.666017,0.16201 -30.518663,0.18484 -31.231502,0.0724 z m 28.671557,-6.24946 c 0.112803,-0.0631 0.587981,-0.77128 1.055953,-1.57367 0.82634,-1.416847 3.601971,-6.20722 8.929346,-15.41086 l 2.593747,-4.48099 -1.504061,-0.664724 c -5.264994,-2.326886 -6.42496,-2.891466 -6.536182,-3.181314 -0.126964,-0.33086 0.544417,-1.574458 0.875417,-1.621541 0.149203,-0.0212 1.2562,0.265358 2.459995,0.636849 5.370642,1.657374 6.345009,1.93614 6.433141,1.840524 0.108531,-0.117759 6.015878,-10.35753 6.320836,-10.956511 l 0.203524,-0.399751 H 70.50968 63.516111 l -1.540345,2.552242 c -1.386298,2.297004 -3.611854,5.925826 -6.619479,10.793226 -0.585225,0.947097 -1.866911,3.02272 -2.848195,4.612491 -0.981279,1.589772 -3.657421,5.879385 -5.946984,9.532474 -4.774842,7.618465 -5.092676,8.132245 -5.193629,8.395315 -0.06719,0.17508 0.64431,0.18618 7.512377,0.11721 4.308148,-0.0433 7.675214,-0.12579 7.791681,-0.19097 z m -19.984943,0.003 c 0.339302,-0.13509 17.062553,-25.025888 24.352088,-36.245563 7.945659,-12.229557 13.946996,-21.678714 13.83786,-21.787845 -0.03319,-0.03319 -2.07248,-0.09176 -4.531723,-0.130125 l -4.471353,-0.06975 -1.40414,2.07638 c -0.772279,1.142013 -2.078993,3.045007 -2.903813,4.228877 -0.824819,1.183875 -4.285499,6.248388 -7.690392,11.254475 -3.404899,5.006086 -7.00039,10.291999 -7.989982,11.746472 -0.989587,1.454468 -2.869477,4.221963 -4.177526,6.149982 -3.629212,5.349337 -7.873091,11.561683 -10.923327,15.989965 l -2.753503,3.997486 0.586601,0.532772 c 1.329717,1.207684 3.745833,2.037084 6.629153,2.275664 0.8648,0.0716 1.224785,0.0669 1.440057,-0.0188 z M 30.874171,89.527158 c 2.483481,-3.416316 5.669277,-7.816631 7.079548,-9.778474 1.410272,-1.961848 2.849989,-3.954443 3.19937,-4.42799 0.349382,-0.47355 1.90657,-2.632196 3.46042,-4.796988 1.553845,-2.164796 4.783025,-6.648133 7.175947,-9.962975 2.392918,-3.314842 5.098803,-7.078633 6.013075,-8.363982 0.914272,-1.285344 2.619943,-3.676704 3.790378,-5.314126 1.170435,-1.637426 2.128191,-2.993498 2.128349,-3.013492 3.54e-4,-0.04528 -1.052708,-0.01348 -5.043277,0.152072 -15.924344,0.660739 -31.508445,3.517804 -40.174009,7.36518 -4.067084,1.805723 -5.607522,3.035393 -6.152966,4.911656 -0.396288,1.363179 -0.0351,3.434474 1.41896,8.137179 2.951109,9.544472 8.579021,24.519881 11.576452,30.803963 l 0.524464,1.099536 0.243937,-0.300039 c 0.134165,-0.165018 2.275875,-3.095204 4.759352,-6.51152 z m 44.735293,-5.600804 c 0.270472,-0.407361 0.40684,-0.724726 0.339507,-0.790135 -0.110934,-0.107769 -4.678267,-1.85004 -4.849845,-1.85004 -0.09873,0 -1.843169,3.039489 -1.843169,3.211513 0,0.06093 1.30856,0.10948 2.950733,0.10948 h 2.950738 z M 103.33946,73.875445 c 0.007,-0.355159 0.0761,-1.669717 0.15375,-2.921241 l 0.14116,-2.275494 5.38124,-0.03203 c 2.95968,-0.01762 5.38039,-0.07297 5.37934,-0.122998 -9.3e-4,-0.05003 -0.15623,-0.589106 -0.34487,-1.197956 l -0.34299,-1.106997 -4.97486,-0.0615 -4.97486,-0.0615 -0.0615,-1.147576 c -0.0338,-0.631164 -0.0172,-1.226178 0.0369,-1.322245 0.0822,-0.145982 0.84697,-0.17467 4.6564,-0.17467 3.59523,0 4.54583,-0.0325 4.50027,-0.15375 -0.0318,-0.08456 -0.24319,-0.721086 -0.46982,-1.414498 l -0.41204,-1.260747 h -4.09698 -4.09697 l -0.11101,-0.276748 c -0.0611,-0.152211 -0.17898,-1.660498 -0.26203,-3.351744 l -0.15102,-3.074991 h -1.33973 c -1.24123,0 -1.34337,0.01808 -1.38922,0.246001 -0.0272,0.135299 -0.1345,1.567522 -0.23839,3.182722 -0.11185,1.738975 -0.2461,3.005659 -0.329159,3.105743 -0.11651,0.14038 -1.583364,0.169017 -8.657102,0.169017 h -8.51683 L 82.06455,61.98472 c -0.415023,0.749365 -0.75459,1.38554 -0.75459,1.413731 0,0.02817 4.220429,0.06543 9.378728,0.08277 l 9.378722,0.03152 0.0752,2.582992 c 0.0413,1.420648 0.14738,3.86739 0.23562,5.437209 l 0.16045,2.85421 0.68687,0.04379 c 0.37778,0.02408 1.00513,0.05424 1.39412,0.06703 l 0.70725,0.02324 z m -5.265153,-6.211704 c -0.02729,-0.524288 -0.07548,-1.078142 -0.107067,-1.230786 l -0.05744,-0.277539 -9.127432,0.03152 -9.127432,0.03152 -0.637858,1.106998 c -0.350822,0.608849 -0.642651,1.148511 -0.648504,1.199248 -0.0059,0.05074 4.436706,0.09225 9.872357,0.09225 h 9.883003 z M 79.365524,62.989212 c 0.587995,-0.997541 1.106082,-1.911031 1.151301,-2.029985 0.07793,-0.205017 -0.278538,-0.214626 -6.845393,-0.184502 l -6.927607,0.0318 -0.568359,0.922495 c -0.3126,0.507376 -0.853367,1.406809 -1.201703,1.998746 l -0.633335,1.076244 6.978,-4.65e-4 6.978005,-4.65e-4 z m 3.912506,-6.795194 c 1.951412,-3.407795 3.521858,-6.128003 5.254813,-9.10198 0.611007,-1.048571 1.09789,-1.921697 1.081959,-1.940278 C 89.4996,45.017391 82.034177,44.317062 78.1001,44.071572 l -1.303326,-0.08133 -2.432814,4.041641 c -1.338043,2.222906 -3.418464,5.68876 -4.623156,7.701898 l -2.190346,3.660253 6.96576,-0.03175 6.965755,-0.03175 z M 17.250998,33.157032 c -0.425357,-0.452775 -0.571116,-1.009738 -0.383062,-1.463742 0.137577,-0.332136 0.414794,-0.507596 2.012097,-1.273505 2.644767,-1.26817 5.787082,-2.504642 9.540023,-3.753913 18.262353,-6.079137 39.87006,-7.781738 60.766874,-4.788185 10.646481,1.525152 21.40486,4.585928 29.75571,8.465551 1.44012,0.66905 1.82155,0.900209 2.00572,1.215549 0.44013,0.753607 -0.11375,1.880286 -0.92435,1.880286 -0.20146,0 -1.59149,-0.411735 -3.08897,-0.914966 -18.824835,-6.326119 -42.692553,-8.636732 -65.45254,-6.336403 -10.863545,1.097967 -21.654641,3.354244 -30.811426,6.442265 -1.319173,0.444876 -2.568735,0.808919 -2.776802,0.808985 -0.235504,7.4e-5 -0.47833,-0.106347 -0.643274,-0.281922 z"
       id="path1" /></g></svg>
