<?xml version="1.0" encoding="UTF-8" standalone="no"?>
<!-- Created with Inkscape (http://www.inkscape.org/) -->

<svg
   width="512"
   height="512"
   viewBox="0 0 135.46666 135.46667"
   version="1.1"
   id="svg1"
   xml:space="preserve"
   inkscape:version="1.4.3 (0d15f75, 2025-12-25)"
   sodipodi:docname="voiture.svg"
   xmlns:inkscape="http://www.inkscape.org/namespaces/inkscape"
   xmlns:sodipodi="http://sodipodi.sourceforge.net/DTD/sodipodi-0.dtd"
   xmlns="http://www.w3.org/2000/svg"
   xmlns:svg="http://www.w3.org/2000/svg"><sodipodi:namedview
     id="namedview1"
     pagecolor="#ffffff"
     bordercolor="#000000"
     borderopacity="0.25"
     inkscape:showpageshadow="2"
     inkscape:pageopacity="0.0"
     inkscape:pagecheckerboard="0"
     inkscape:deskcolor="#d1d1d1"
     inkscape:document-units="mm"
     inkscape:zoom="0.50835204"
     inkscape:cx="350.15105"
     inkscape:cy="111.14345"
     inkscape:window-width="1920"
     inkscape:window-height="1009"
     inkscape:window-x="-8"
     inkscape:window-y="-8"
     inkscape:window-maximized="1"
     inkscape:current-layer="layer1" /><defs
     id="defs1" /><g
     inkscape:label="Calque 1"
     inkscape:groupmode="layer"
     id="layer1"><path
       style="fill:#0a396a;fill-opacity:1;stroke-width:7.8441"
       d="M 14.471149,121.29733 C 12.351751,106.85767 14.262496,59.092105 17.095629,55.677961 19.351514,52.959823 18.681628,52.045436 12.560404,49.487788 3.9874262,45.905778 1.2000244,42.167671 5.1245073,39.515815 9.0657767,36.852507 25.60295,39.173028 29.809193,42.979849 32.950756,45.822866 34.267389,44.665233 44.573599,29.99786 50.796953,21.140926 58.415224,12.677846 61.503133,11.190839 68.92373,7.6175361 110.32945,4.3452118 126.18512,6.0789938 138.63787,7.4406516 138.51684,7.4788524 110.71789,10.964301 68.59161,16.246206 66.633173,16.99218 56.773218,31.511615 l -8.341811,12.283786 6.757067,1.031499 c 3.716379,0.567129 21.23312,2.065666 38.926042,3.329587 42.361204,3.026254 46.572944,6.756517 6.647484,5.887626 -23.924434,-0.520848 -30.025577,-0.0706 -31.496032,2.30499 -1.521756,2.462261 -3.593697,2.542271 -12.513223,0.483196 C 40.597188,53.103137 26.926486,53.63834 22.834217,58.160228 17.404765,64.15979 18.355156,81.61229 24.906315,96.210322 l 5.506874,12.270998 -4.823888,10.29931 c -5.752394,12.28159 -9.558431,13.14303 -11.118152,2.51647 z m 11.970257,4.49992 c 0.692634,-1.80555 1.259763,-4.06873 1.259763,-5.02932 0,-3.80533 10.992098,-14.51739 14.896892,-14.51739 3.885969,0 3.807998,0.4071 -1.222189,6.38549 -2.955188,3.51204 -5.373054,8.64867 -5.373054,11.41481 0,4.03603 -1.068602,5.02933 -5.410626,5.02933 -4.081052,0 -5.10102,-0.80669 -4.150786,-3.28292 z m 13.712276,-3.61926 c 0,-2.65476 2.161521,-6.85748 4.803415,-9.33943 4.588408,-4.31057 6.592262,-4.51263 44.753034,-4.51263 h 39.949539 l -0.65028,6.74514 c -0.63851,6.62341 -0.85642,6.7566 -12.06517,7.38287 -6.27818,0.35063 -12.30206,1.51815 -13.38643,2.59428 -1.08445,1.07606 -15.793938,1.95648 -32.68786,1.95648 H 40.153761 Z m 4.829222,-27.748281 c -6.974192,-1.35852 -14.41299,-10.101793 -17.266831,-20.294812 -3.019117,-10.783131 -1.788848,-15.61902 3.973665,-15.61902 2.860823,0 5.330774,2.739788 8.086721,8.970045 4.438586,10.034176 11.942176,14.648391 27.357639,16.823012 l 9.339345,1.317495 -11.414738,-4.191731 C 50.672153,76.151694 35.663561,60.591348 44.954351,60.591348 c 1.49893,0 9.068881,3.825961 16.822149,8.502144 16.507754,9.956363 26.063911,13.469423 47.05778,17.299698 l 15.37382,2.804894 -13.49021,0.265131 c -7.41966,0.1459 -22.82963,1.618082 -34.244447,3.271854 -21.267399,3.08132 -23.700169,3.212317 -31.490539,1.694875 z"
       id="path2" /></g></svg>
